<svg width="97" height="73" viewBox="0 0 97 73" fill="none" xmlns="http://www.w3.org/2000/svg">
<g clip-path="url(#clip0_404_21)">
<path fill-rule="evenodd" clip-rule="evenodd" d="M48.494 -0.00195312C75.272 -0.00195312 96.988 16.3387 96.988 36.4876C96.988 56.6365 75.272 72.9771 48.494 72.9771C21.716 72.9771 0 56.6365 0 36.4876C0 16.3387 21.716 -0.00195312 48.494 -0.00195312Z" fill="#F7E123"/>
<path fill-rule="evenodd" clip-rule="evenodd" d="M48.4972 1.53906V1.54483H48.4952H48.4914V1.53906C35.4509 1.5394 23.6613 5.50495 15.1438 11.9141C6.74791 18.2316 1.55356 26.9229 1.55322 36.4878H1.55938V36.4892V36.4913H1.55322C1.55391 46.0559 6.7479 54.7464 15.1432 61.064C23.6611 67.4738 35.4517 71.4393 48.4933 71.4395V71.4335H48.4952H48.4991V71.4395C61.5396 71.4389 73.3291 67.4735 81.8466 61.0644C90.2427 54.7468 95.4372 46.0555 95.4372 36.4906H95.4314V36.4892V36.4871H95.4372C95.4365 26.9227 90.2427 18.232 81.8473 11.9144C73.3293 5.50495 61.5386 1.53906 48.4972 1.53906Z" fill="#353980"/>
<path fill-rule="evenodd" clip-rule="evenodd" d="M48.4962 11.0322V11.0366H48.4948H48.4921V11.0322C39.4023 11.0326 31.1844 13.9209 25.2472 18.589C19.3949 23.1906 15.7741 29.521 15.7739 36.4875H15.7781V36.4885V36.4901H15.7739C15.7743 43.4564 19.3949 49.7863 25.2468 54.3878C31.1842 59.0562 39.4028 61.9447 48.4935 61.9448V61.9405H48.4948H48.4976V61.9448C57.5874 61.9444 65.8053 59.0562 71.7424 54.388C77.5946 49.7865 81.2156 43.4561 81.2156 36.4895H81.2115V36.4885V36.487H81.2156C81.2153 29.5207 77.5946 23.1907 71.7429 18.5894C65.8053 13.9209 57.5867 11.0324 48.4962 11.0322Z" fill="#F7E123"/>
<path fill-rule="evenodd" clip-rule="evenodd" d="M49.1024 12.9692H48.4961H48.4944H47.4815C43.5234 13.0678 39.7531 13.7421 36.3032 14.8873C35.5112 15.1502 34.7126 15.4491 33.9102 15.7813C33.1245 16.1066 32.3671 16.4535 31.6413 16.819C29.765 17.7637 28.0265 18.8651 26.4564 20.0998L26.4544 20.0973V20.1013C25.6784 20.7113 24.9533 21.3441 24.2838 21.9965C23.6044 22.658 22.9721 23.3453 22.391 24.0546C19.5709 27.4969 17.8788 31.5357 17.7253 35.845V36.4882V36.4892V36.4911V37.1274C17.7915 39.0011 18.1485 40.8256 18.7631 42.5718C18.9896 43.2154 19.2469 43.8405 19.5326 44.4443C21.0344 47.6191 23.4174 50.4905 26.4558 52.8789L26.4823 52.9052C27.2522 53.5088 28.0647 54.0821 28.9151 54.6206C29.7416 55.1441 30.6462 55.6543 31.6246 56.1478C36.3225 58.5179 41.9024 59.9237 47.9108 60.0095H48.4932H48.4944H48.4975H49.4661C53.4396 59.9148 57.2238 59.2407 60.6857 58.0914C61.4778 57.8285 62.2764 57.5297 63.0789 57.1974C63.8645 56.8721 64.6217 56.5254 65.3478 56.1598C67.2242 55.215 68.9624 54.1134 70.5326 52.8789L70.5345 52.8814V52.8774C71.3106 52.2674 72.0356 51.6346 72.7051 50.9823C73.3846 50.3207 74.0169 49.6334 74.5982 48.9241C77.4151 45.4857 79.1071 41.4511 79.2638 37.1471V36.4905V36.4892V36.4878V35.822C79.195 33.9582 78.8374 32.1442 78.226 30.4069C77.9995 29.7633 77.7422 29.1382 77.4565 28.5344C75.9548 25.3596 73.5717 22.4883 70.5334 20.0998L70.503 20.0695L70.5007 20.0675C69.7324 19.466 68.9215 18.8949 68.0738 18.3581C67.2473 17.8346 66.3428 17.3245 65.3644 16.8309C60.6725 14.4639 55.1018 13.0581 49.1024 12.9692Z" fill="#BBBDBF"/>
<path fill-rule="evenodd" clip-rule="evenodd" d="M48.9904 14.2142L48.9908 18.2296C49.8872 18.2171 50.7816 18.1742 51.6669 18.1008C50.8582 16.5986 49.9598 15.2851 48.9904 14.2142ZM48.9908 19.1906L48.9914 27.0347C50.9689 27.0318 52.9321 26.9698 54.8572 26.85C54.1868 23.9748 53.2622 21.3106 52.1403 19.0218C51.1004 19.1189 50.0463 19.1755 48.9908 19.1906ZM48.9914 27.9978L48.992 36.0745H56.0523C56.0412 35.7144 56.0264 35.3549 56.0071 34.996C55.8753 32.5315 55.553 30.1052 55.0679 27.7996C53.0741 27.9273 51.04 27.9941 48.9914 27.9978ZM48.992 37.0403L48.9925 45.4401C51.1195 45.444 53.2309 45.5156 55.2975 45.6533C55.8573 42.8498 56.1008 39.9354 56.0723 37.0403H48.992ZM48.9925 46.4028L48.9931 54.2504C50.0638 54.2662 51.1331 54.3242 52.1878 54.4244C53.5082 52.03 54.4618 49.3794 55.0942 46.6035C53.0936 46.4737 51.051 46.4059 48.9925 46.4028ZM48.9931 55.2121L48.9935 58.8899C49.9972 57.8024 50.8833 56.6126 51.6573 55.341C50.7762 55.2677 49.8854 55.2251 48.9931 55.2121ZM48.0237 58.8893L48.0233 55.21C47.1287 55.2189 46.2354 55.2577 45.3513 55.3267C46.1273 56.6035 47.0161 57.798 48.0237 58.8893ZM48.0233 54.2477L48.0227 46.4059C45.9945 46.4229 43.9558 46.5029 41.9314 46.6474C42.5626 49.3995 43.5102 52.0277 44.8185 54.4043C45.8757 54.3097 46.9481 54.2573 48.0233 54.2477ZM48.0227 45.4426L48.0221 37.0403H40.9416C40.9133 39.9496 41.1595 42.8786 41.7262 45.6947C43.8175 45.5427 45.9254 45.4592 48.0227 45.4426ZM48.0221 36.0745L48.0215 27.9953C46.0007 27.9792 43.97 27.9014 41.9538 27.7602C41.464 30.0774 41.1382 32.5166 41.0058 34.9949C40.9866 35.3541 40.9723 35.7138 40.9612 36.0745H48.0221ZM48.0215 27.0318L48.021 19.1929C46.9628 19.1831 45.907 19.1317 44.8662 19.0395C43.7532 21.3131 42.8346 23.9565 42.1665 26.8079C44.1129 26.9416 46.0722 27.0158 48.0215 27.0318ZM48.021 18.2316L48.0206 14.2215C47.05 15.2938 46.1507 16.609 45.3417 18.1128C46.228 18.1825 47.124 18.2225 48.021 18.2316ZM39.334 55.3297C40.49 55.0317 41.6991 54.7951 42.9381 54.6205C43.2154 54.5815 43.4944 54.5455 43.775 54.5125C42.5001 52.1092 41.5737 49.4729 40.954 46.7221C39.7311 46.8223 38.5151 46.9469 37.312 47.0955C35.5406 47.3145 33.799 47.5857 32.1058 47.9112C32.3081 48.2384 32.5198 48.5624 32.7414 48.8824C34.4037 51.2824 36.6025 53.4746 39.334 55.3297ZM43.0752 55.5751C42.1776 55.7016 41.3003 55.8602 40.4514 56.0512C42.3571 57.2208 44.4975 58.2338 46.8706 59.053C45.8963 57.9324 45.036 56.7166 44.2835 55.4254C43.8777 55.4687 43.4746 55.5187 43.0752 55.5751ZM53.2283 54.5372C54.7499 54.724 56.2312 55.0008 57.6326 55.3674C60.3929 53.503 62.6119 51.2954 64.2869 48.877C64.526 48.5318 64.7541 48.1818 64.9712 47.8283C62.1903 47.2964 59.1893 46.9077 56.0726 46.6719C55.4513 49.4501 54.5171 52.1127 53.2283 54.5372ZM56.5189 56.0827C55.2996 55.8028 54.0254 55.5901 52.7226 55.4447C51.9726 56.7292 51.1164 57.9386 50.1466 59.0537C52.5002 58.2417 54.6248 57.2392 56.5189 56.0827ZM31.5872 47.0296C33.4119 46.6696 35.2881 46.3729 37.194 46.1374C38.3698 45.9921 39.5583 45.87 40.7535 45.7706C40.1893 42.9238 39.9433 39.9713 39.9708 37.0403H28.8844C28.9321 40.4724 29.8355 43.8888 31.5872 47.0296ZM56.2715 45.7233C59.5027 45.9724 62.6117 46.3839 65.4846 46.9479C67.2076 43.8297 68.0958 40.4426 68.1435 37.0403H57.0433C57.071 39.9549 56.8285 42.8911 56.2715 45.7233ZM28.8939 36.0745H39.9899C40.001 35.6976 40.0159 35.3213 40.036 34.9458C40.1686 32.4643 40.4933 30.0183 40.9809 27.6874C39.709 27.5854 38.4444 27.4575 37.194 27.3036C35.2921 27.0695 33.4201 26.7737 31.5987 26.4156C29.9021 29.4761 29.0024 32.7729 28.8939 36.0745ZM57.024 36.0745H68.1346C68.0275 32.8019 67.143 29.533 65.4742 26.4954C62.5362 27.0698 59.3514 27.4855 56.0418 27.7322C56.5241 30.05 56.8449 32.4807 56.9769 34.947C56.997 35.3221 57.0127 35.698 57.024 36.0745ZM32.1142 25.533C33.8047 25.857 35.5433 26.1276 37.312 26.3455C38.5924 26.5031 39.8876 26.6325 41.1902 26.7355C41.8483 23.8923 42.7513 21.2424 43.8469 18.9354C43.2348 18.8647 42.629 18.78 42.0331 18.6801C41.0668 18.5182 40.1252 18.3179 39.2189 18.0803C36.4162 20.0602 34.1864 22.3752 32.526 24.8865C32.3845 25.1007 32.2476 25.3162 32.1142 25.533ZM55.8342 26.7836C59.0336 26.5506 62.1144 26.1579 64.964 25.6151C64.8154 25.3712 64.6616 25.1292 64.5025 24.8887C62.8308 22.3608 60.5825 20.0314 57.7524 18.0427C56.2943 18.4309 54.7473 18.7212 53.1577 18.9132C54.2632 21.2383 55.173 23.9132 55.8342 26.7836ZM40.2983 17.3529C40.9165 17.4956 41.549 17.6214 42.1928 17.7293C42.8847 17.8454 43.5897 17.941 44.3028 18.0168C45.067 16.5425 45.9141 15.2304 46.8276 14.124C44.4046 15.0231 42.2284 16.1122 40.2983 17.3529ZM52.7045 18.0003C54.0706 17.8487 55.4057 17.6225 56.6789 17.3227C54.7584 16.0938 52.5951 15.0143 50.1883 14.1222C51.0983 15.225 51.9425 16.5319 52.7045 18.0003ZM49.1024 12.9692H47.4815C44.9969 13.0299 41.058 15.5727 39.0255 16.9619C38.7774 16.8925 38.5318 16.8207 38.29 16.7454C37.0711 16.3656 35.9363 15.9101 34.92 15.3801L34.9196 15.3799C34.584 15.5074 34.2473 15.6416 33.9102 15.7813L33.7774 15.8365C34.0569 15.9984 34.3959 16.1954 34.4674 16.2327C35.5387 16.7915 36.7281 17.2694 38.001 17.666L38.0277 17.6741C35.41 19.6243 33.3015 21.868 31.7009 24.2889C31.4885 24.6103 31.2855 24.9345 31.091 25.2619C30.675 25.1757 30.2616 25.0874 29.8524 24.9947C27.5167 24.4654 25.2944 23.8272 23.2375 23.077C23.005 23.332 22.7785 23.5903 22.5594 23.8516L22.7306 23.9173L22.7613 23.9286C24.9058 24.7189 27.2162 25.3861 29.6355 25.9343C29.9523 26.0061 30.2715 26.0754 30.5921 26.1432C28.9089 29.2728 28.0176 32.6356 27.9122 36.0049L17.7253 36.0146V36.4892V36.9804L27.9033 36.9707C27.9498 40.471 28.8445 43.9531 30.581 47.1641C30.2641 47.2313 29.9486 47.3006 29.6355 47.3719C27.2211 47.9207 24.9156 48.5881 22.7748 49.3785C22.9997 49.6394 23.2312 49.8967 23.4692 50.1503C25.4614 49.4339 27.6046 48.8224 29.8524 48.3114C30.2589 48.2191 30.6694 48.1299 31.0824 48.0441C31.3477 48.4874 31.6291 48.9251 31.9276 49.3561C33.5217 51.6576 35.588 53.7737 38.1219 55.5983C37.1025 55.9108 36.135 56.2757 35.238 56.6916C34.8411 56.8754 34.46 57.0686 34.0972 57.2699L34.0982 57.2718C34.4912 57.4319 34.8888 57.5861 35.2915 57.7333C35.4098 57.6753 35.5286 57.6189 35.6489 57.5631C36.7095 57.0713 37.8789 56.6533 39.1235 56.3104C39.1476 56.3039 42.8411 58.7732 46.7925 59.978C47.1635 59.9935 47.5363 60.0041 47.911 60.0095H49.4661C52.0661 59.9486 55.6566 57.7385 57.7964 56.34C59.172 56.7236 60.4587 57.1992 61.615 57.7671C62.0094 57.623 62.4055 57.4706 62.8026 57.3099L62.8074 57.3014C61.6176 56.6436 60.2719 56.0896 58.8205 55.6398C61.3839 53.8044 63.4709 51.6717 65.0785 49.3506C65.3944 48.8944 65.6919 48.4308 65.971 47.9606C68.7718 48.5434 71.326 49.2761 73.5211 50.1501C73.7702 49.8842 74.0121 49.6147 74.2464 49.3417C72.042 48.4994 69.0754 47.6371 66.4668 47.082C68.1755 43.8938 69.0559 40.4413 69.1024 36.9707H79.2638V36.4892V36.0049H69.0941C68.9901 32.6642 68.113 29.33 66.4571 26.2234C69.3562 25.609 71.9918 24.8352 74.2393 23.9117L74.424 23.845C74.2047 23.5837 73.9785 23.3258 73.7462 23.0716C71.4995 23.9833 68.8635 24.7442 65.9642 25.3447C65.7552 24.9899 65.5354 24.6387 65.3054 24.291C63.6925 21.8518 61.5646 19.5926 58.9189 17.632C60.3331 17.1873 61.6447 16.6432 62.8074 15.9984L63.1582 15.8163C62.7695 15.654 62.3763 15.4983 61.9781 15.3488C60.7656 15.982 59.3975 16.5082 57.9255 16.927C55.6593 15.3857 53.0467 14.0537 50.087 12.9955C49.76 12.9828 49.4321 12.9741 49.1024 12.9692Z" fill="#4782A5"/>
<path fill-rule="evenodd" clip-rule="evenodd" d="M64.6785 40.4534C64.6652 40.533 64.6506 40.612 64.6361 40.6913L64.6354 40.6911C64.5558 41.1223 64.466 41.5198 64.3665 41.8824H64.3628C63.8113 43.8891 62.8298 45.7226 61.4199 47.3798L61.4209 47.3805L61.4191 47.3826L61.4078 47.394C61.0324 47.8341 60.6371 48.2478 60.2224 48.6336C59.8147 49.0129 59.3782 49.3716 58.9142 49.7077C56.5755 51.401 53.7543 52.3048 50.4258 52.3048H50.4217V52.3009C48.9117 52.3006 47.4919 52.0828 46.1739 51.6865C45.9306 51.6133 45.7185 51.5445 45.5388 51.4812C44.4578 51.0993 43.4525 50.5968 42.53 49.9975L42.5224 49.9936L42.5207 49.9924L42.5211 49.9919C42.383 49.9021 42.215 49.7858 42.02 49.6469C41.8239 49.507 41.6602 49.3857 41.5287 49.283C41.3564 49.1484 41.1879 49.0102 41.0222 48.8677V51.3042V52.27H40.0485H38.1046L37.1309 52.2702V51.3042V42.9075V41.9417H38.1046H40.0483H40.0485H41.0222V42.6815C42.1758 44.8831 43.91 46.4599 45.8862 47.3913C47.7166 48.2542 49.7538 48.5683 51.7298 48.3174C53.7015 48.067 55.6156 47.2534 57.2043 45.8611C58.7519 44.5048 59.9975 42.5911 60.6978 40.1022C59.0197 40.1884 57.292 40.4719 55.5317 40.7611C51.5372 41.4176 47.3785 42.1012 42.821 40.7213L42.1268 40.5111L42.1326 39.7932L42.1445 38.3412L42.1458 38.1671L42.1522 37.3775L42.1669 35.5979L42.1778 34.2734L43.4411 34.6887C47.3423 35.9711 51.2542 35.3356 55.1658 34.7003C56.7561 34.442 58.3469 34.1841 59.9625 34.0452C58.7461 31.4586 56.9934 29.7329 55.0244 28.7499C53.7415 28.1098 52.3631 27.7796 50.9799 27.7285C49.5882 27.6771 48.1865 27.9074 46.8673 28.3866C44.4329 29.2709 42.293 31.0024 41.0222 33.3726V34.1082H40.0485H40.0483H38.1046H37.1309V33.1424V24.7457V23.7801L38.1046 23.7798H40.0485L41.0222 23.7801V24.7457V27.0213C41.4617 26.6462 41.9419 26.2925 42.4711 25.9581L42.4749 25.9543L42.4787 25.952L42.4794 25.9531C42.8033 25.7489 43.1347 25.5583 43.4728 25.3829C43.8377 25.1936 44.1848 25.0304 44.5131 24.8938H44.517C46.3325 24.1388 48.3378 23.7607 50.5316 23.7607H50.5343V23.7646C52.7997 23.765 54.8305 24.2632 56.6324 25.1494C56.9165 25.289 57.2046 25.4445 57.4945 25.6139C58.9356 26.4557 60.2129 27.5504 61.3317 28.8339C62.1603 29.7845 62.8469 30.7402 63.3885 31.7402C63.8302 32.556 64.1766 33.4005 64.4245 34.2933C64.5134 34.3068 64.5932 34.3193 64.6631 34.3317C65.4434 34.4679 66.2925 34.683 67.0993 34.9305L67.7879 35.1418L67.7877 35.8511V37.3297V37.6153V38.316V38.7122V40.0663V41.4194L66.4983 40.9755L66.4652 40.9641C66.2966 40.9061 66.1322 40.8519 65.9731 40.8016C65.8049 40.7485 65.6526 40.7023 65.5174 40.6637C65.2129 40.5766 64.9334 40.5073 64.6785 40.4534Z" fill="#1A2128"/>
<path fill-rule="evenodd" clip-rule="evenodd" d="M24.3413 37.607C25.2877 37.8434 25.8345 37.3097 25.9064 36.6052C25.9282 36.5197 25.9399 36.4337 25.9403 36.3502C25.9407 36.2629 25.93 36.1621 25.9097 36.051C25.7977 35.3294 25.233 34.8915 24.3413 35.0497V37.607ZM24.7903 40.2544L24.7901 40.9755H25.4262L25.4266 41.9413L25.4271 43.0419L25.4277 44.0077H24.4573H23.6133H22.7901H22.6396H21.8164H19.8728H18.9035L18.9029 43.0419L18.9023 41.9413L18.902 40.9755H19.5742L19.5604 35.0427H18.8696L18.8842 34.0655L18.9029 32.8196L18.9173 31.8652H19.8728H21.8164H22.6396H22.7901H23.1631H23.6133V31.8701C24.7105 31.893 25.8081 32.0149 26.719 32.4563C27.9043 33.0304 28.7079 34.0534 28.7239 35.8731C28.7379 37.4847 28.2819 38.6056 27.3857 39.3404C26.7226 39.8839 25.8554 40.1718 24.7903 40.2544Z" fill="#F7E123"/>
<path fill-rule="evenodd" clip-rule="evenodd" d="M35.7504 36.3058H34.4195H33.4583L33.4497 35.3476L33.4477 35.1242L33.2852 35.1264V40.9195H33.9903V41.8853V43.0419V44.0077H33.0166H32.1085H31.2854H31.1348H30.3117H30.1574H29.1837V44.0039H28.439H27.4653V43.0419V41.8853V40.9195H28.1654V35.0988H27.4653V34.1329V32.831V31.8691H28.439H29.1837V31.8652H30.1574H31.1348H32.1085V31.8691H35.7504H36.7241V32.831V35.34V36.3058H35.7504Z" fill="#F7E123"/>
<path fill-rule="evenodd" clip-rule="evenodd" d="M62.8858 38.5974C62.8725 38.677 62.8579 38.756 62.8433 38.8354L62.8427 38.8352C62.7631 39.2663 62.6733 39.6639 62.5738 40.0264H62.5701C62.0186 42.0332 61.0371 43.8666 59.6272 45.5238L59.6281 45.5246L59.6264 45.5267L59.6151 45.5381C59.2396 45.9781 58.8443 46.3918 58.4297 46.7776C58.0219 47.157 57.5855 47.5157 57.1214 47.8518C54.7828 49.545 51.9616 50.4488 48.6331 50.4488H48.629V50.445C47.119 50.4446 45.6991 50.2269 44.3811 49.8305C44.1379 49.7573 43.9258 49.6885 43.7461 49.6252C42.665 49.2433 41.6598 48.7409 40.7373 48.1415L40.7297 48.1376L40.728 48.1365L40.7284 48.1359C40.5903 48.0461 40.4222 47.9298 40.2273 47.7909C40.0312 47.6511 39.8674 47.5298 39.7359 47.427C39.5636 47.2924 39.3952 47.1543 39.2294 47.0117V49.4482V50.414H38.2557H36.3118L35.3381 50.4142V49.4482V41.0515V40.0857H36.3118H38.2555H38.2557H39.2294V40.8255C40.3831 43.0272 42.1173 44.6039 44.0935 45.5354C45.9238 46.3982 47.961 46.7123 49.9371 46.4614C51.9088 46.2111 53.8229 45.3975 55.4116 44.0051C56.9592 42.6488 58.2048 40.7351 58.9051 38.2463C57.227 38.3324 55.4993 38.6159 53.739 38.9051C49.7445 39.5617 45.5858 40.2453 41.0283 38.8653L40.334 38.6552L40.3398 37.9372L40.3517 36.4852L40.3531 36.3112L40.3595 35.5215L40.3741 33.7419L40.385 32.4174L41.6483 32.8327C45.5496 34.1151 49.4615 33.4796 53.3731 32.8443C54.9633 32.586 56.5541 32.3282 58.1697 32.1893C56.9534 29.6027 55.2007 27.8769 53.2317 26.894C51.9487 26.2538 50.5704 25.9237 49.1871 25.8725C47.7955 25.8211 46.3937 26.0514 45.0746 26.5306C42.6401 27.4149 40.5003 29.1464 39.2294 31.5167V32.2522H38.2557H38.2555H36.3118H35.3381V31.2865V22.8897V21.9241L36.3118 21.9239H38.2557L39.2294 21.9241V22.8897V25.1653C39.669 24.7902 40.1492 24.4365 40.6783 24.1022L40.6822 24.0983L40.6859 24.096L40.6867 24.0972C41.0105 23.893 41.342 23.7023 41.6801 23.5269C42.045 23.3377 42.392 23.1744 42.7204 23.0379H42.7243C44.5398 22.2828 46.5451 21.9048 48.7388 21.9048H48.7416V21.9087C51.007 21.909 53.0377 22.4072 54.8397 23.2934C55.1238 23.4331 55.4118 23.5886 55.7018 23.758C57.1428 24.5998 58.4202 25.6944 59.5389 26.978C60.3676 27.9285 61.0542 28.8843 61.5958 29.8843C62.0375 30.7 62.3839 31.5445 62.6318 32.4373C62.7206 32.4508 62.8005 32.4634 62.8704 32.4757C63.6507 32.6119 64.4998 32.8271 65.3066 33.0745L65.9952 33.2859L65.995 33.9952V35.4738V35.7593V36.4601V36.8562V38.2103V39.5634L64.7056 39.1195L64.6725 39.1081C64.5039 39.0502 64.3395 38.9959 64.1804 38.9457C64.0122 38.8926 63.8599 38.8464 63.7247 38.8078C63.4201 38.7206 63.1407 38.6513 62.8858 38.5974Z" fill="#F6E125"/>
<path fill-rule="evenodd" clip-rule="evenodd" d="M77.1487 31.8184L78.1183 31.8238V32.7804V34.1244V35.0902H77.4248L77.4939 39.6343V39.6382L77.4942 39.6805V39.6956C77.4929 39.8362 77.4805 39.9733 77.4583 40.1028C77.4388 40.2163 77.4066 40.3479 77.3642 40.4941C76.8157 42.3749 75.4769 43.7284 73.4761 44.1074L69.5289 44.1182L68.5608 44.1209L68.5591 43.1562L68.5557 41.1591L68.5542 40.1682L69.5523 40.1972L70.7571 40.2324L71.6576 40.2588L71.6897 40.9297L72.3431 40.9351L72.3384 40.3247L72.0808 40.3042L72.0048 40.293C70.7696 40.0985 69.9433 39.6141 69.3797 38.9445C68.8288 38.2899 68.5684 37.4986 68.4352 36.648L68.4239 36.575V36.5009L68.4272 35.0902H67.8005V34.1244V32.7804V31.8086L68.7818 31.8184L71.2291 31.8433C71.4465 31.8457 71.664 31.8463 71.8817 31.8468L71.8369 35.0041L71.3902 34.9957L71.3828 36.6322C71.3799 37.339 72.2219 37.9177 72.7281 37.9231L72.7111 35.0205L71.9571 35.0064L72.0019 31.8474C73.7158 31.8499 75.4345 31.8092 77.1487 31.8184Z" fill="#F7E123"/>
<path fill-rule="evenodd" clip-rule="evenodd" d="M30.0063 43.042H28.4385V41.8853H29.1386V34.1329H28.4385V32.8311H30.0063V43.042ZM30.1569 43.042H31.1343V32.8311H30.1569V43.042ZM35.7498 35.34H34.4189L34.4084 34.1503L32.3109 34.1762V41.8853H33.0161V43.042H31.2848V32.8311H35.7498V35.34Z" fill="#1A2128"/>
<path fill-rule="evenodd" clip-rule="evenodd" d="M62.0537 37.5021C61.7795 40.2794 60.7201 42.7509 58.8767 44.9129C56.3585 47.8652 52.9665 49.4826 48.6347 49.4826C45.8098 49.4826 43.3308 48.6719 41.2714 47.3336C40.1222 46.5867 39.1175 45.6835 38.2574 44.6259V49.4478H36.3135V41.0511H38.2572H38.2574V41.0515C43.0172 50.5789 57.6547 49.7615 60.1412 37.2587C54.2438 37.1786 48.1397 40.0119 41.3113 37.9443L41.3232 36.4923C49.8102 38.1855 54.787 35.9377 59.9244 35.7766V34.7028C54.9955 34.8436 49.781 36.9445 41.331 35.5286L41.3456 33.749C47.53 35.782 53.5077 33.2919 59.5885 33.0634C55.3951 21.7069 42.3343 23.2505 38.2574 31.2856V31.286H38.2572H36.3135V22.8893H38.2574V27.6165C39.0443 26.5605 39.9886 25.6791 41.2011 24.9128C43.3549 23.5512 45.8682 22.8701 48.7405 22.8701C52.955 22.8701 56.2905 24.7212 58.8064 27.6076C60.369 29.4001 61.3904 31.2021 61.8481 33.3078C62.8072 33.3996 63.9579 33.6682 65.0229 33.9947V35.4733C64.0263 35.1104 63.058 34.8956 62.0952 34.7865V35.8481C63.0422 35.9452 64.0109 36.137 65.0229 36.4596V38.2099C63.7513 37.7706 62.7511 37.5465 62.0537 37.5021Z" fill="#1A2128"/>
<path fill-rule="evenodd" clip-rule="evenodd" d="M75.5887 32.7718L77.1478 32.7803V34.1243H76.4437L76.5272 39.6456C76.5426 40.1861 76.1529 41.0984 75.5887 41.8562V32.7718ZM74.4531 32.7656L75.4381 32.771V42.0491C75.1398 42.4156 74.801 42.7308 74.4531 42.9279V32.7656ZM73.3801 38.0553L73.3532 34.1071L72.5768 34.0994V32.7554L74.3025 32.7648V43.0055C74.0986 43.1 73.8933 43.1509 73.6907 43.1447L69.5322 43.1562L69.5289 41.1591L70.7337 41.1942L70.7669 41.884L73.3238 41.905L73.3045 39.4332L72.1602 39.3422C70.2097 39.0351 69.614 37.8859 69.3971 36.5008L69.4025 34.1243H68.7776V32.7803L71.2249 32.8052V34.1492H70.783L70.7725 36.6372C70.8757 37.3032 71.3252 37.7753 72.1209 38.0536L73.3801 38.0553Z" fill="#1A2128"/>
<path fill-rule="evenodd" clip-rule="evenodd" d="M22.6403 43.042H19.8735L19.8729 41.9413H20.5468L20.5287 34.0769H19.8547L19.8735 32.8311H22.6403V43.042ZM23.8411 38.0831C25.4639 38.2933 26.5318 37.4497 26.5361 36.1538C26.5412 34.6385 25.4401 34.0526 23.8411 34.1859V38.0831ZM23.8214 39.3132L23.8208 41.9413H24.4574L24.458 43.042H22.7908V32.8311H23.1638C25.4127 32.8311 27.7308 33.1289 27.7548 35.8807C27.7774 38.4731 26.4076 39.3877 23.8214 39.3132Z" fill="#1A2128"/>
<path fill-rule="evenodd" clip-rule="evenodd" d="M60.6984 62.8993L61.5054 66.6648L62.6183 66.4301L62.7829 67.1973L59.8057 67.8249L59.6413 67.0579L60.7511 66.8237L59.9441 63.0582L60.6984 62.8993ZM64.9593 61.7704L66.1684 66.2466L63.4218 66.9765L63.2171 66.2189L65.2189 65.687L64.9507 64.6949L63.0909 65.189L62.8875 64.4357L64.7472 63.9414L64.4181 62.7231L62.3494 63.2729L62.1455 62.5183L64.9593 61.7704ZM67.1641 60.8852L68.555 64.4791L69.6173 64.0747L69.9006 64.8069L67.0592 65.8888L66.7758 65.1566L67.835 64.7533L66.4442 61.1593L67.1641 60.8852ZM71.5033 58.9211L73.4778 63.1208L72.8104 63.4295L71.4948 60.631L71.4068 64.0789L70.7047 64.4034L68.7304 60.2037L69.3976 59.895L70.6853 62.6339L70.7986 59.2472L71.5033 58.9211ZM73.6613 59.6495L72.8751 59.8137C72.6886 59.315 72.6432 58.8927 72.7397 58.545C72.8367 58.1981 73.0519 57.9167 73.3851 57.7021C73.8037 57.4324 74.2478 57.3741 74.7172 57.5261C75.2588 57.7019 75.7348 58.104 76.1457 58.731C76.5795 59.3943 76.7688 60.0099 76.712 60.5792C76.6627 61.0725 76.418 61.4616 75.976 61.7465C75.6164 61.9781 75.2352 62.0499 74.8335 61.9628C74.5472 61.9 74.2522 61.7249 73.9484 61.4355L74.4685 60.8369C74.6474 61.0212 74.8342 61.1299 75.0296 61.1633C75.2256 61.1967 75.4063 61.1601 75.5716 61.0538C75.8087 60.901 75.9353 60.674 75.9503 60.3723C75.9661 60.0716 75.8193 59.6849 75.51 59.2126C75.1897 58.7229 74.8886 58.4216 74.6074 58.3094C74.3258 58.1962 74.0685 58.2151 73.8351 58.3656C73.6634 58.4761 73.559 58.6374 73.5207 58.8485C73.4823 59.0609 73.5289 59.3283 73.6613 59.6495ZM79.3452 58.4689L78.5661 57.4058L78.2205 57.6549C77.9882 57.8224 77.8421 57.9516 77.7822 58.0443C77.723 58.1361 77.6973 58.2441 77.7066 58.3668C77.7148 58.4902 77.7637 58.6123 77.8541 58.7353C77.9447 58.8593 78.0494 58.9453 78.1661 58.9907C78.2841 59.036 78.3936 59.044 78.4963 59.0154C78.5982 58.9858 78.7792 58.8769 79.0406 58.6885L79.3452 58.4689ZM77.6878 54.9049L80.4339 58.6538L79.4276 59.3787C79.053 59.649 78.795 59.807 78.6533 59.8543C78.4275 59.929 78.1853 59.9143 77.9276 59.812C77.669 59.7088 77.4308 59.5083 77.2118 59.2099C77.0131 58.9385 76.8991 58.6741 76.8676 58.4166C76.8362 58.1591 76.8717 57.9375 76.9723 57.7517C77.0719 57.5667 77.3111 57.3368 77.6895 57.0641L78.0997 56.7685L77.0637 55.3546L77.6878 54.9049ZM80.3422 52.4786L83.4681 55.9223L81.355 57.8095L80.8263 57.2265L82.366 55.8512L81.6731 55.0878L80.2423 56.3658L79.716 55.7861L81.1469 54.5081L80.296 53.5709L78.7043 54.9924L78.1774 54.4118L80.3422 52.4786ZM83.9266 51.455L82.9425 50.6926L82.5005 51.2537C82.3068 51.4995 82.1963 51.6667 82.1669 51.7562C82.1375 51.846 82.1429 51.9445 82.1816 52.0513C82.2209 52.1572 82.2983 52.2553 82.416 52.3463C82.5367 52.44 82.6551 52.4909 82.7728 52.501C82.8909 52.5107 82.998 52.4853 83.0924 52.4243C83.1882 52.3629 83.3381 52.2024 83.5413 51.9439L83.9266 51.455ZM85.3906 52.5897L84.5394 51.93L84.2253 52.3289C84.0371 52.5679 83.9252 52.7189 83.8886 52.7826C83.8239 52.8981 83.8048 53.0119 83.8297 53.1257C83.8551 53.2387 83.9293 53.3426 84.0518 53.4376C84.1606 53.522 84.2673 53.5675 84.3724 53.5723C84.4774 53.5771 84.5643 53.5528 84.6345 53.4989C84.7036 53.4444 84.8644 53.258 85.1155 52.9391L85.3906 52.5897ZM86.4783 52.4618L85.534 53.6605C85.2767 53.9872 85.0656 54.1942 84.9 54.2798C84.7358 54.3658 84.5407 54.3959 84.3159 54.3693C84.0928 54.3428 83.8835 54.2545 83.6915 54.1056C83.5139 53.9683 83.3846 53.8048 83.3028 53.6157C83.2214 53.4264 83.1947 53.2429 83.2238 53.0656C83.0205 53.1943 82.8026 53.2485 82.5693 53.2292C82.3363 53.2116 82.1091 53.1162 81.8877 52.9447C81.6205 52.7374 81.4443 52.497 81.3601 52.2265C81.2756 51.9555 81.2807 51.716 81.3741 51.5078C81.4401 51.3629 81.6461 51.0695 81.9938 50.6283L82.7968 49.6088L86.4783 52.4618ZM85.0314 46.4516L88.8583 49.1095L88.4358 49.7079L85.8857 47.9366L87.5476 50.9663L87.1031 51.5957L83.2765 48.9378L83.6987 48.3395L86.1944 50.0728L84.5852 47.0836L85.0314 46.4516ZM86.4677 42.8684L90.7994 44.6042L90.5106 45.3135L88.8063 44.6304L88.2377 46.0261L89.9419 46.709L89.6521 47.4212L85.3202 45.6853L85.6103 44.9731L87.5044 45.7321L88.0728 44.3366L86.179 43.5775L86.4677 42.8684ZM88.0334 40.8279L91.5932 40.091L91.4276 40.9351L88.8768 41.3411L91.1107 42.5513L90.9581 43.3309L87.7193 41.4016C87.3248 41.1651 87.0552 40.9571 86.9094 40.7782C86.7647 40.6009 86.7127 40.4095 86.7524 40.2072C86.7904 40.0124 86.8438 39.8424 86.9112 39.6969L87.5965 39.8292C87.5636 39.9515 87.5407 40.045 87.5281 40.1097C87.4928 40.2907 87.5058 40.4263 87.5684 40.5142C87.6321 40.6032 87.7867 40.7079 88.0334 40.8279ZM93.0849 35.242L93.1534 35.5907C92.8581 35.6276 92.6162 35.5885 92.4311 35.4736C92.2443 35.3581 92.131 35.1918 92.0883 34.9747C92.0458 34.7566 92.0879 34.5605 92.2176 34.384C92.3459 34.2086 92.555 34.0813 92.8424 34.005L92.9104 34.3525C92.6159 34.4369 92.4944 34.615 92.5474 34.8862C92.6005 35.1565 92.7801 35.2756 93.0849 35.242ZM86.9002 34.4089L91.4861 33.5248L91.6264 34.2417L88.5706 34.8308L91.922 35.7499L92.0698 36.5039L87.4839 37.3881L87.3433 36.6712L90.334 36.0947L87.0484 35.1663L86.9002 34.4089ZM86.118 30.6542L90.7039 29.7702L90.8445 30.487L87.7884 31.0761L91.1402 31.9952L91.288 32.7493L86.7018 33.6334L86.5611 32.9166L89.5522 32.34L86.2665 31.4116L86.118 30.6542ZM85.0327 27.5942L89.2669 25.6359L89.5929 26.3292L87.7908 27.1627C87.8822 27.3085 87.9859 27.3914 88.0984 27.4109C88.212 27.4308 88.456 27.4134 88.8286 27.3587C89.2019 27.305 89.4886 27.2963 89.6863 27.3323C89.8845 27.3682 90.0292 27.4381 90.1171 27.5414C90.2054 27.6446 90.3238 27.8374 90.473 28.1196L89.8383 28.4132L89.7921 28.3155C89.7 28.119 89.5909 28.0074 89.4663 27.9793C89.3428 27.9519 89.1317 27.9625 88.8361 28.0101C88.5395 28.058 88.3348 28.0751 88.2243 28.062C88.1135 28.0502 87.9876 28.0049 87.848 27.928C87.8558 28.1099 87.812 28.2826 87.7138 28.4445C87.6177 28.607 87.4336 28.8337 87.162 29.1237L86.2248 30.1298L85.8409 29.3131L86.7397 28.3916C86.9707 28.1574 87.1223 27.9767 87.1982 27.8497C87.2731 27.7234 87.2769 27.5836 87.2102 27.4311L85.3588 28.2875L85.0327 27.5942ZM85.7749 25.4429L85.9538 26.2198C85.4543 26.4134 85.0297 26.4658 84.6772 26.3761C84.3262 26.2861 84.0385 26.0775 83.8164 25.7509C83.5372 25.3404 83.4708 24.901 83.6155 24.4329C83.7835 23.8924 84.1804 23.4134 84.8055 22.9952C85.4666 22.5531 86.0835 22.3549 86.6583 22.4012C87.1565 22.4414 87.553 22.6771 87.848 23.1109C88.0878 23.4634 88.1669 23.8399 88.0861 24.2401C88.0279 24.5251 87.8562 24.8208 87.5698 25.1269L86.9574 24.6218C87.1401 24.441 87.2465 24.2538 87.2769 24.0593C87.307 23.8644 87.267 23.686 87.1568 23.5241C86.9987 23.2915 86.7678 23.1698 86.4633 23.1602C86.1598 23.1497 85.7725 23.3022 85.302 23.617C84.8138 23.9434 84.5154 24.2473 84.4073 24.5282C84.2981 24.8094 84.3214 25.0642 84.4774 25.2931C84.5917 25.4613 84.7559 25.5621 84.9698 25.5963C85.1843 25.6307 85.4532 25.5799 85.7749 25.4429ZM80.6891 21.6327L84.2153 18.5925L86.0807 20.7209L85.484 21.2355L84.1243 19.6842L83.3429 20.3582L84.6061 21.7995L84.0125 22.3112L82.7496 20.8699L81.7895 21.6974L83.1947 23.3008L82.6004 23.8133L80.6891 21.6327ZM79.8006 16.8438L80.8961 15.5939L81.4781 16.0957L80.6648 17.0238C80.4948 17.2178 80.3767 17.369 80.3114 17.4783C80.244 17.5877 80.2217 17.7086 80.2419 17.8403C80.2628 17.9726 80.3559 18.11 80.5208 18.2521C80.7678 18.4654 81.0207 18.5718 81.2797 18.572L82.6011 17.0642L83.1834 17.566L80.1184 21.0632L79.5364 20.5614L80.7702 19.1534C80.4318 19.0806 80.1472 18.9435 79.9162 18.7445C79.5963 18.4685 79.4252 18.1639 79.4037 17.8311C79.3821 17.4992 79.5145 17.1702 79.8006 16.8438ZM74.8318 16.8475L77.6436 13.1467L78.2315 13.5861L76.3582 16.0522L79.4687 14.5108L80.0873 14.9732L77.2755 18.674L76.6877 18.2345L78.5209 15.821L75.4532 17.3118L74.8318 16.8475ZM70.9733 14.5419L73.3793 10.5697L74.3706 11.1606L73.3248 14.2253L75.5565 11.8674L76.5505 12.4598L74.1441 16.4318L73.5298 16.0656L75.4238 12.9388L72.877 15.6765L72.2377 15.2954L73.4846 11.783L71.5904 14.9097L70.9733 14.5419ZM68.733 11.0598C68.5059 11.5429 68.4284 11.9476 68.4991 12.2742C68.5709 12.6016 68.7425 12.8285 69.0167 12.9555C69.2919 13.0827 69.576 13.0677 69.87 12.912C70.1639 12.7563 70.4266 12.4302 70.6603 11.9334C70.8892 11.4463 70.9705 11.0461 70.9039 10.7306C70.8379 10.4167 70.6619 10.1936 70.377 10.0619C70.0921 9.93016 69.8043 9.93983 69.5154 10.092C69.2253 10.2448 68.9645 10.567 68.733 11.0598ZM67.9978 10.7544C68.2333 10.2537 68.5008 9.87627 68.8027 9.62207C69.1038 9.3671 69.4124 9.21584 69.7275 9.16873C70.0426 9.12139 70.3717 9.17742 70.7147 9.33601C71.2116 9.56587 71.5275 9.94041 71.664 10.4619C71.7995 10.9829 71.7043 11.5913 71.3775 12.2867C71.0475 12.9887 70.6233 13.4615 70.1065 13.7036C69.6512 13.9191 69.175 13.9108 68.6761 13.68C68.1733 13.4474 67.8584 13.091 67.7299 12.6112C67.5842 12.063 67.6738 11.4438 67.9978 10.7544ZM63.5124 11.6261L65.0335 7.24463L65.7626 7.49364L65.1642 9.2176L66.599 9.70763L67.1974 7.98366L67.9297 8.23382L66.4085 12.6153L65.6763 12.3652L66.3414 10.4492L64.9067 9.95914L64.2417 11.8751L63.5124 11.6261ZM60.71 8.48801C60.5708 9.00278 60.5655 9.41481 60.6923 9.72426C60.8203 10.0343 61.0292 10.2282 61.3213 10.3058C61.6146 10.3839 61.8917 10.3202 62.1542 10.1162C62.4163 9.91221 62.6179 9.54595 62.7611 9.01632C62.9013 8.49727 62.9112 8.08894 62.7905 7.78995C62.6703 7.49207 62.4578 7.30277 62.1542 7.22224C61.8506 7.1415 61.569 7.20058 61.3112 7.40014C61.0522 7.60044 60.8518 7.96282 60.71 8.48801ZM59.9326 8.31377C60.0767 7.78027 60.2742 7.36226 60.527 7.05998C60.7788 6.75709 61.0563 6.55505 61.3583 6.45423C61.6604 6.35357 61.9944 6.35184 62.3597 6.449C62.8894 6.58981 63.2662 6.90427 63.4919 7.39454C63.7167 7.88419 63.7293 8.49962 63.5291 9.24078C63.327 9.98887 62.9922 10.5276 62.5256 10.855C62.1147 11.1457 61.6444 11.2195 61.1126 11.0781C60.5768 10.9358 60.2043 10.639 59.9938 10.1886C59.7543 9.67383 59.7342 9.04856 59.9326 8.31377ZM56.3001 9.95778L57.1915 5.40884L57.9486 5.55488L57.5691 7.49072C57.7418 7.50327 57.8705 7.46852 57.9523 7.38989C58.0357 7.3103 58.1646 7.1044 58.3393 6.77331C58.5149 6.44204 58.6762 6.20716 58.8218 6.06924C58.9675 5.93152 59.1095 5.85658 59.2456 5.84654C59.3817 5.83649 59.6084 5.85502 59.9262 5.90101L59.7926 6.58305L59.6859 6.56238C59.4713 6.52105 59.3163 6.54287 59.2201 6.62653C59.1253 6.7094 59.01 6.88479 58.8748 7.14998C58.7394 7.41636 58.6333 7.5906 58.5576 7.67154C58.4828 7.75363 58.3718 7.82799 58.2269 7.89461C58.38 7.99564 58.495 8.13221 58.5696 8.30587C58.6454 8.47874 58.7223 8.75961 58.7991 9.14806L59.069 10.4915L58.1771 10.3196L57.9539 9.0565C57.8986 8.73372 57.84 8.50579 57.7814 8.37038C57.7223 8.23575 57.6105 8.15057 57.447 8.11463L57.0571 10.1036L56.3001 9.95778ZM53.7878 7.81329L53.8431 7.03062L55.0411 7.11387C55.0303 6.72484 54.9492 6.41964 54.7991 6.19925C54.6489 5.97808 54.4468 5.85909 54.1952 5.84172C53.7839 5.81311 53.4924 6.05033 53.3206 6.55427L52.5757 6.2939C52.6931 5.86181 52.8959 5.5394 53.1849 5.32485C53.4737 5.11036 53.8203 5.01737 54.225 5.04554C54.7634 5.08287 55.1779 5.32892 55.4684 5.78606C55.7588 6.24211 55.8779 6.8421 55.8258 7.58364C55.7751 8.30047 55.5775 8.86312 55.2324 9.27071C54.8873 9.67943 54.4534 9.86469 53.9295 9.82838C53.0591 9.7679 52.5568 9.23556 52.426 8.23151L53.2193 7.99218C53.2347 8.31245 53.3132 8.5622 53.4554 8.74183C53.5975 8.92146 53.7825 9.01998 54.0116 9.03583C54.5181 9.07099 54.8427 8.69102 54.9858 7.89637L53.7878 7.81329ZM47.1442 3.57434L47.5008 3.54346C47.507 3.83871 47.4426 4.07288 47.308 4.24359C47.1726 4.41566 46.9941 4.51034 46.7719 4.52935C46.5489 4.54903 46.3567 4.48659 46.1931 4.34031C46.0307 4.1954 45.9249 3.97582 45.8786 3.6843L46.234 3.65342C46.2877 3.95308 46.4538 4.09155 46.7312 4.06745C47.0077 4.04336 47.146 3.87876 47.1442 3.57434ZM45.6622 9.58847L45.255 4.97223L45.9886 4.90843L46.2599 7.98465L47.5318 4.77438L48.3033 4.70752L48.7105 9.32383L47.9769 9.38756L47.7113 6.37695L46.4371 9.52124L45.6622 9.58847ZM44.1999 9.64603L43.7927 5.02959L44.561 4.96307L44.9682 9.57938L44.1999 9.64603ZM40.9949 7.90968L41.1022 9.1274L41.9149 9.05687C42.1263 9.03851 42.2778 9.0115 42.3695 8.97519C42.4615 8.93904 42.5378 8.86411 42.6002 8.75361C42.6613 8.64236 42.6864 8.51872 42.6745 8.38236C42.6383 7.97287 42.3602 7.79127 41.8389 7.83647L40.9949 7.90968ZM40.4029 9.97557L39.9957 5.35912L40.7639 5.29261L40.9259 7.12836L42.0181 7.03351C42.4245 6.99818 42.7579 7.10033 43.019 7.33871C43.2803 7.57705 43.4297 7.90852 43.4671 8.33308C43.4977 8.67905 43.4289 9.00125 43.2609 9.30065C43.093 9.60025 42.7629 9.77079 42.2698 9.81348L40.4029 9.97557ZM36.5215 10.5838L35.6302 6.03506L36.3871 5.88903L36.7379 7.67887L38.2274 7.39162L37.8767 5.60198L38.637 5.45537L39.5283 10.0041L38.768 10.1508L38.3783 8.16177L36.8888 8.44881L37.2785 10.438L36.5215 10.5838ZM32.7815 11.522L31.4939 7.06751L32.235 6.85676L32.7418 8.60934L34.2004 8.19442L33.6937 6.44187L34.4382 6.23017L35.726 10.6845L34.9815 10.8962L34.4183 8.94851L32.9597 9.36343L33.5229 11.3111L32.7815 11.522ZM29.4625 12.6549L27.7883 8.32884L30.4429 7.31804L30.7262 8.05032L28.7917 8.78683L29.1628 9.74588L30.9603 9.06152L31.2421 9.78955L29.4446 10.4741L29.9003 11.6516L31.8999 10.8902L32.1821 11.6195L29.4625 12.6549ZM25.7671 11.9748L26.2552 13.1148L26.9159 12.8365C27.2053 12.7148 27.3841 12.6219 27.4536 12.5575C27.5229 12.493 27.5666 12.4044 27.5849 12.2925C27.602 12.1809 27.5823 12.0578 27.5241 11.9219C27.4641 11.7816 27.3854 11.6802 27.2877 11.6147C27.1888 11.5494 27.083 11.5203 26.9704 11.528C26.8567 11.5359 26.6474 11.6041 26.343 11.7324L25.7671 11.9748ZM25.0411 10.2782L25.4633 11.2645L25.9328 11.0669C26.2144 10.9483 26.3862 10.8701 26.4493 10.8318C26.5624 10.7619 26.6347 10.6717 26.6686 10.5601C26.7013 10.449 26.6875 10.3225 26.6267 10.1805C26.5728 10.0544 26.5019 9.96338 26.4121 9.90854C26.3225 9.85387 26.2345 9.8334 26.1471 9.84671C26.0598 9.8612 25.8283 9.94696 25.4528 10.105L25.0411 10.2782ZM24.0275 9.8672L25.4394 9.27282C25.8238 9.11077 26.1099 9.03139 26.2965 9.036C26.4822 9.03987 26.6672 9.10731 26.8511 9.23864C27.0333 9.36924 27.1732 9.54714 27.2686 9.76963C27.3564 9.97516 27.3899 10.1803 27.3687 10.3849C27.3474 10.5896 27.2812 10.7629 27.1691 10.9041C27.4098 10.8892 27.6269 10.9466 27.8215 11.0758C28.0168 11.2033 28.1689 11.3961 28.2785 11.6522C28.4111 11.9622 28.4477 12.2574 28.3889 12.5342C28.3305 12.8117 28.2088 13.019 28.0251 13.156C27.8968 13.251 27.5732 13.4084 27.0534 13.6273L25.8528 14.1328L24.0275 9.8672ZM23.7775 15.2348L21.8959 11.8678L20.9006 12.415L20.5173 11.7291L23.1792 10.2655L23.5627 10.9514L22.5703 11.4969L24.4518 14.8639L23.7775 15.2348ZM20.7502 14.9607L21.5302 14.7692C21.7341 15.2612 21.7942 15.6815 21.7101 16.0325C21.6254 16.3825 21.4201 16.6713 21.0947 16.8973C20.686 17.1813 20.2439 17.255 19.7697 17.1192C19.2219 16.9624 18.7321 16.577 18.2998 15.9645C17.8426 15.3166 17.632 14.708 17.6687 14.1372C17.7004 13.6423 17.9312 13.2452 18.3633 12.945C18.7144 12.7011 19.0926 12.6163 19.4975 12.6893C19.7857 12.742 20.0865 12.907 20.4003 13.1857L19.9017 13.8021C19.7165 13.624 19.5259 13.5216 19.3292 13.4951C19.1323 13.4685 18.953 13.5114 18.7917 13.6234C18.5602 13.7843 18.4416 14.0153 18.4371 14.3174C18.4318 14.6188 18.5921 14.9999 18.9179 15.4613C19.2554 15.9396 19.567 16.2301 19.8519 16.3327C20.1374 16.436 20.3937 16.4082 20.6217 16.2498C20.7894 16.1335 20.8881 15.9686 20.9189 15.7563C20.9498 15.5425 20.8939 15.2771 20.7502 14.9607ZM15.1456 16.4323L15.9614 17.4681L16.2981 17.2071C16.5245 17.0316 16.6657 16.8973 16.7224 16.8026C16.7783 16.709 16.8003 16.6002 16.7867 16.478C16.774 16.3549 16.7209 16.2346 16.6264 16.1146C16.5312 15.9939 16.4237 15.9116 16.3055 15.8703C16.1859 15.8289 16.0762 15.8249 15.9746 15.8571C15.8739 15.89 15.6967 16.0053 15.4422 16.2025L15.1456 16.4323ZM16.9273 19.9369L14.0512 16.2854L15.0309 15.526C15.396 15.2431 15.6484 15.0762 15.7881 15.024C16.0114 14.9415 16.2541 14.9479 16.515 15.0412C16.7769 15.1353 17.0223 15.3275 17.2511 15.6182C17.4595 15.8824 17.583 16.1428 17.6233 16.399C17.6636 16.6553 17.6361 16.878 17.5421 17.0671C17.4492 17.2556 17.2182 17.4934 16.8496 17.7791L16.4501 18.0887L17.535 19.466L16.9273 19.9369ZM14.2969 19.9525L12.6696 19.1616L13.584 20.7109L14.2969 19.9525ZM16.6196 20.1698L16.0461 20.7798L15.041 20.3047L13.9982 21.414L14.5594 22.3611L13.9986 22.9578L11.599 18.7155L12.1575 18.1214L16.6196 20.1698ZM9.97134 21.7961L9.33316 22.7344C10.4757 23.4988 11.2732 24.1573 11.7215 24.7097L12.5359 23.5119L9.97134 21.7961ZM12.9672 22.8778L13.1526 22.605L14.6515 23.6077L14.2969 24.1292L13.4537 23.565L12.1008 25.5544L12.9441 26.1186L12.5896 26.64L11.0907 25.6373L11.2689 25.3752C11.0685 25.0914 10.7941 24.792 10.4492 24.4793C10.1028 24.1669 9.5497 23.7551 8.78866 23.2459L8.27105 22.8996L9.74973 20.7252L12.9672 22.8778ZM9.65194 27.1393L6.02551 26.8745L6.41905 26.1082L8.98378 26.4151L7.17271 24.6411L7.53611 23.9336L10.1133 26.6736C10.4268 27.0087 10.6282 27.2824 10.7186 27.4941C10.8085 27.7041 10.8054 27.9025 10.711 28.0862C10.6202 28.2629 10.5217 28.4118 10.4167 28.5331L9.79451 28.2187C9.86014 28.1101 9.90783 28.0265 9.93805 27.9678C10.0224 27.8034 10.0473 27.6693 10.0116 27.5679C9.97541 27.4648 9.85586 27.322 9.65194 27.1393ZM8.06442 29.5959L8.47962 28.9137C8.97465 29.1184 9.3168 29.3734 9.50745 29.6805C9.69714 29.9876 9.7577 30.3357 9.68875 30.7236C9.60209 31.2111 9.34212 31.5733 8.91019 31.8099C8.41089 32.0833 7.78985 32.1542 7.04748 32.0243C6.26231 31.887 5.67963 31.6044 5.29854 31.175C4.96822 30.8028 4.84813 30.3601 4.93983 29.8447C5.01407 29.4261 5.22121 29.1008 5.5595 28.8685C5.80095 28.7037 6.13144 28.6093 6.55187 28.5863L6.63875 29.3717C6.38069 29.3757 6.17311 29.4371 6.01497 29.5563C5.85686 29.6755 5.76065 29.8316 5.72636 30.024C5.6773 30.3002 5.75832 30.5467 5.97039 30.7636C6.18149 30.9801 6.56669 31.1373 7.12597 31.2351C7.70551 31.3365 8.13299 31.3236 8.40757 31.1963C8.68293 31.0692 8.84436 30.8696 8.89288 30.5975C8.92829 30.3977 8.88059 30.2119 8.75109 30.0402C8.62062 29.8673 8.39159 29.719 8.06442 29.5959ZM6.4325 35.3353C6.9616 35.4279 7.37581 35.3973 7.67553 35.2451C7.97584 35.0916 8.15246 34.8683 8.20505 34.5729C8.2576 34.2762 8.1696 34.0079 7.94173 33.7665C7.71409 33.5252 7.32869 33.3579 6.7844 33.2627C6.25081 33.1694 5.83989 33.1949 5.55012 33.3403C5.26135 33.485 5.08969 33.7114 5.03529 34.0186C4.98054 34.3255 5.06437 34.5986 5.28762 34.836C5.51139 35.0746 5.89268 35.2409 6.4325 35.3353ZM6.3252 36.1186C5.7768 36.0228 5.3398 35.8642 5.01407 35.6407C4.688 35.4182 4.46081 35.1615 4.33353 34.8719C4.20591 34.5824 4.17512 34.2525 4.24081 33.8829C4.33627 33.3471 4.61923 32.9475 5.09174 32.6819C5.56394 32.417 6.18091 32.3508 6.94271 32.4841C7.71177 32.6185 8.28196 32.9024 8.65138 33.3349C8.97934 33.7157 9.0944 34.1739 8.99881 34.7116C8.90239 35.2536 8.63677 35.6475 8.20289 35.8949C7.7067 36.1763 7.0806 36.2507 6.3252 36.1186ZM9.03891 39.4612L4.50632 40.417L3.94553 37.8006L4.71914 37.6376L5.11946 39.5057L8.87864 38.7131L9.03891 39.4612ZM3.9014 43.9269L3.82715 43.5797C4.1214 43.5375 4.36364 43.5723 4.55114 43.6839C4.73967 43.7964 4.856 43.9606 4.90253 44.1769C4.94906 44.3942 4.91006 44.591 4.7838 44.7699C4.65858 44.9474 4.45192 45.0782 4.16554 45.1595L4.09129 44.8134C4.38486 44.7239 4.5029 44.5435 4.44507 44.2733C4.38759 44.004 4.20557 43.8879 3.9014 43.9269ZM10.1001 44.6529L5.53028 45.6164L5.3772 44.9018L8.42235 44.26L5.05513 43.399L4.89398 42.6477L9.46382 41.6842L9.6169 42.3987L6.6368 43.0268L9.93822 43.8982L10.1001 44.6529ZM11.8852 48.0593L7.79919 50.3059L7.44222 49.6671L10.1651 48.1701L6.6913 48.3233L6.31586 47.6515L10.4019 45.4048L10.7589 46.0436L8.09402 47.5088L11.5082 47.3845L11.8852 48.0593ZM13.8428 50.6076L10.1612 53.4604L9.68643 52.8578L11.2533 51.6436C11.1312 51.5217 11.0112 51.4641 10.8973 51.4703C10.7818 51.4761 10.5483 51.5475 10.1974 51.6839C9.8459 51.8195 9.5688 51.892 9.36765 51.9012C9.16667 51.9103 9.00989 51.8746 8.90064 51.7935C8.79119 51.7125 8.63229 51.551 8.42276 51.3096L8.97485 50.8817L9.04164 50.9667C9.17638 51.1377 9.30784 51.2221 9.4356 51.2215C9.56199 51.2207 9.76509 51.1632 10.0424 51.0509C10.3207 50.9381 10.516 50.8758 10.6268 50.864C10.7376 50.8506 10.8704 50.8667 11.0239 50.9105C10.9752 50.7349 10.9787 50.557 11.0373 50.3774C11.0944 50.1975 11.2221 49.9356 11.4212 49.5924L12.1061 48.4029L12.6654 49.113L11.9986 50.2115C11.8268 50.4912 11.7203 50.7011 11.6749 50.8417C11.6305 50.9816 11.6584 51.1187 11.7581 51.2522L13.368 50.0048L13.8428 50.6076ZM13.5458 52.863L13.2332 52.1288C13.6913 51.852 14.1004 51.7274 14.463 51.7548C14.8249 51.7832 15.1444 51.9391 15.4204 52.2225C15.767 52.5785 15.9096 52.9999 15.8488 53.4857C15.7781 54.0469 15.471 54.5871 14.9286 55.1066C14.3552 55.6559 13.782 55.9572 13.2079 56.0108C12.7102 56.0571 12.2786 55.8931 11.9121 55.5166C11.6143 55.2108 11.4706 54.8537 11.48 54.4456C11.4876 54.1548 11.6046 53.8342 11.8331 53.4834L12.5248 53.8753C12.3766 54.0847 12.3045 54.2875 12.3088 54.4842C12.3129 54.6814 12.3838 54.8502 12.5205 54.9909C12.717 55.1925 12.9657 55.2725 13.2673 55.2296C13.568 55.1877 13.9226 54.9709 14.331 54.5796C14.7543 54.1742 14.995 53.8236 15.0527 53.5284C15.1109 53.2325 15.0429 52.9858 14.8496 52.7871C14.7074 52.6412 14.5279 52.5702 14.3117 52.5732C14.094 52.5763 13.8383 52.6727 13.5458 52.863ZM17.5487 56.9107L18.3514 55.9619L17.8013 55.5041C17.5606 55.3036 17.3958 55.1879 17.3066 55.1556C17.2173 55.1236 17.1177 55.1253 17.0089 55.1601C16.9008 55.1954 16.7993 55.2686 16.7035 55.3818C16.6048 55.4985 16.5495 55.6142 16.5351 55.7303C16.5212 55.8473 16.543 55.9542 16.6011 56.0502C16.6599 56.1469 16.8163 56.3011 17.0694 56.5118L17.5487 56.9107ZM16.3543 58.3223L17.0488 57.5016L16.6579 57.1763C16.4237 56.9814 16.2753 56.8649 16.2124 56.8267C16.0982 56.7585 15.9843 56.7355 15.8687 56.7563C15.7541 56.7776 15.6467 56.8473 15.5468 56.9655C15.4579 57.0704 15.4085 57.1746 15.3999 57.2787C15.3914 57.3828 15.413 57.4697 15.4646 57.541C15.5172 57.6115 15.6992 57.7772 16.0118 58.0374L16.3543 58.3223ZM16.4453 59.405L15.2704 58.427C14.9505 58.1606 14.7491 57.9439 14.6687 57.777C14.5876 57.6109 14.5643 57.417 14.5988 57.1948C14.6334 56.9744 14.7296 56.77 14.8862 56.5848C15.0311 56.4139 15.1999 56.2912 15.3935 56.217C15.5869 56.1427 15.7729 56.1226 15.9505 56.1577C15.8279 55.9516 15.7808 55.7338 15.8085 55.5031C15.8344 55.2727 15.9386 55.0507 16.1189 54.8375C16.337 54.5796 16.5855 54.4133 16.8609 54.3397C17.1368 54.2651 17.3781 54.2787 17.5847 54.3787C17.7283 54.4491 18.0169 54.6636 18.4492 55.0237L19.4484 55.8551L16.4453 59.405ZM21.1426 59.7562C21.4351 59.3094 21.5687 58.9192 21.5444 58.586C21.5193 58.252 21.3812 58.0034 21.1274 57.84C20.8729 57.676 20.5894 57.6514 20.2762 57.7652C19.9635 57.8788 19.6575 58.1655 19.3565 58.6252C19.0615 59.0758 18.9247 59.461 18.9464 59.7824C18.9678 60.1027 19.1109 60.3476 19.3746 60.5174C19.6381 60.6872 19.9243 60.7173 20.2318 60.6064C20.5407 60.4954 20.8439 60.2122 21.1426 59.7562ZM21.8275 60.1603C21.5243 60.6234 21.2063 60.9605 20.8717 61.1705C20.538 61.3814 20.2108 61.4886 19.8922 61.4917C19.5736 61.495 19.2556 61.3942 18.9383 61.1898C18.4784 60.8935 18.218 60.479 18.1561 59.9437C18.0949 59.409 18.2745 58.8197 18.6959 58.1763C19.1212 57.5267 19.6075 57.117 20.1532 56.9487C20.6346 56.7981 21.1049 56.8721 21.5666 57.1695C22.0318 57.4691 22.2936 57.8655 22.3535 58.3584C22.4209 58.9213 22.2452 59.5222 21.8275 60.1603ZM25.107 59.2744L23.2848 62.6735L24.2895 63.2033L23.9183 63.8958L21.2308 62.4784L21.602 61.7861L22.6038 62.3144L24.4259 58.9153L25.107 59.2744ZM26.521 61.7971L25.9249 61.2626C26.222 60.8199 26.5397 60.5352 26.8801 60.4083C27.2199 60.2821 27.5761 60.2895 27.9469 60.4307C28.4129 60.6082 28.7216 60.9304 28.8734 61.3961C29.0485 61.9342 29.0002 62.5526 28.7301 63.2506C28.4445 63.9889 28.0534 64.5023 27.5558 64.7915C27.1245 65.042 26.6635 65.0745 26.171 64.8869C25.7708 64.7347 25.4883 64.471 25.3229 64.0973C25.2059 63.8307 25.1755 63.4909 25.233 63.0772L26.0269 63.1425C25.9817 63.3945 26.0028 63.6084 26.0906 63.7849C26.1784 63.9619 26.3146 64.0853 26.4984 64.1552C26.7623 64.2559 27.0218 64.224 27.2768 64.0588C27.5315 63.8946 27.7605 63.5496 27.964 63.0237C28.1749 62.4787 28.2436 62.0602 28.17 61.7685C28.0968 61.4759 27.9301 61.2808 27.6702 61.1817C27.4793 61.1091 27.2863 61.1199 27.0916 61.2133C26.8957 61.3074 26.705 61.5019 26.521 61.7971ZM32.0469 64.4305C32.2039 63.9209 32.2238 63.5095 32.1079 63.1958C31.9911 62.8815 31.7891 62.6802 31.4999 62.5925C31.2095 62.5046 30.9301 62.5585 30.6608 62.7534C30.3916 62.9481 30.1772 63.3072 30.0156 63.8315C29.8573 64.3455 29.8329 64.753 29.943 65.0561C30.0526 65.358 30.2583 65.5545 30.5587 65.6456C30.8594 65.7368 31.143 65.6876 31.4076 65.4969C31.6736 65.3057 31.8867 64.9505 32.0469 64.4305ZM32.8175 64.6315C32.6547 65.1599 32.4428 65.5707 32.1794 65.8641C31.9173 66.1581 31.6327 66.3505 31.3274 66.4407C31.022 66.5309 30.6882 66.5209 30.3264 66.4111C29.802 66.2522 29.4364 65.9247 29.2282 65.4272C29.0209 64.93 29.0296 64.3144 29.2559 63.5807C29.4841 62.84 29.8378 62.3132 30.3157 62.0022C30.7364 61.7258 31.209 61.6684 31.7355 61.828C32.266 61.9889 32.6279 62.2983 32.8226 62.7557C33.0436 63.2785 33.0419 63.9041 32.8175 64.6315ZM35.1334 66.8751L35.4539 65.5999L35.0393 65.4973C34.7605 65.4283 34.5669 65.4005 34.4567 65.4144C34.3478 65.4285 34.2481 65.4784 34.1591 65.5643C34.0691 65.6499 34.0064 65.7656 33.9692 65.9132C33.9318 66.0619 33.9328 66.1967 33.9727 66.3146C34.0136 66.4334 34.0777 66.5216 34.1659 66.5811C34.2541 66.6396 34.4547 66.7072 34.7682 66.7847L35.1334 66.8751ZM36.8206 63.3248L35.6905 67.821L34.4839 67.5226C34.0345 67.4115 33.7464 67.3171 33.6189 67.2398C33.4158 67.1162 33.2717 66.9226 33.185 66.6611C33.0985 66.3984 33.1001 66.0886 33.1901 65.7304C33.272 65.405 33.4027 65.1482 33.5813 64.9589C33.7603 64.7696 33.9541 64.6541 34.1622 64.611C34.3692 64.5676 34.7003 64.6018 35.1542 64.714L35.6461 64.8357L36.0724 63.1397L36.8206 63.3248Z" fill="#FFF100"/>
<path fill-rule="evenodd" clip-rule="evenodd" d="M43.6741 68.5389V65.0375H44.5589C44.6819 65.0333 44.805 65.0439 44.9255 65.0691C45.0377 65.0957 45.1404 65.1524 45.2226 65.2331C45.3132 65.3301 45.3802 65.4467 45.4185 65.5738C45.4698 65.7284 45.4954 65.8904 45.4943 66.0532C45.5031 66.3191 45.4351 66.5819 45.2984 66.8103C45.1358 67.0335 44.8651 67.1517 44.5905 67.1194H43.9585V68.5452L43.6741 68.5389ZM43.9964 66.703H44.6284C44.7915 66.7194 44.9528 66.6587 45.0646 66.539C45.158 66.3996 45.2025 66.2332 45.191 66.0659C45.195 65.9356 45.1691 65.8061 45.1151 65.6873C45.0759 65.5953 45.0038 65.5211 44.9129 65.4791C44.8144 65.4642 44.7143 65.4642 44.6158 65.4791H43.9838L43.9964 66.703Z" fill="#FFE600"/>
<path fill-rule="evenodd" clip-rule="evenodd" d="M46.2632 65.0376H46.5539V67.8135L47.818 65.0376H48.134V68.539H47.8432V65.7694L46.5792 68.539H46.2568L46.2632 65.0376Z" fill="#FFE600"/>
<path fill-rule="evenodd" clip-rule="evenodd" d="M49.0312 68.539V65.0376H49.3536V66.476H50.6177V65.0376H50.94V68.539H50.6177V66.8861H49.3536V68.539H49.0312Z" fill="#FFE600"/>
<path fill-rule="evenodd" clip-rule="evenodd" d="M51.5403 68.539L52.4694 66.7284L51.6477 65.0376H52.0333L52.4757 65.9398C52.5642 66.1227 52.6274 66.2678 52.6653 66.3624C52.7222 66.2363 52.7854 66.1038 52.8612 65.965L53.3416 65.0376H53.6892L52.8549 66.7031L53.7587 68.539H53.3669L52.7348 67.2772L52.6337 67.0627L52.5263 67.3025L51.8942 68.5201L51.5403 68.539Z" fill="#FFE600"/>
<path fill-rule="evenodd" clip-rule="evenodd" d="M43.2936 64.3501C42.6583 65.0351 42.3159 65.9405 42.3392 66.8736C42.3244 67.8053 42.6657 68.7076 43.2936 69.3971H42.769C42.1164 68.7204 41.7595 67.8128 41.7767 66.8736C41.7663 65.9357 42.1222 65.0306 42.769 64.3501H43.2936Z" fill="#FFE600"/>
<path fill-rule="evenodd" clip-rule="evenodd" d="M54.6699 64.3501C55.3166 65.0306 55.6725 65.9357 55.6621 66.8736C55.6793 67.8128 55.3224 68.7204 54.6699 69.3971H54.1453C54.7732 68.7076 55.1144 67.8053 55.0996 66.8736C55.1229 65.9405 54.7805 65.0351 54.1453 64.3501H54.6699Z" fill="#FFE600"/>
</g>
<defs>
<clipPath id="clip0_404_21">
<rect width="97" height="73" fill="white"/>
</clipPath>
</defs>
</svg>
