<svg width="659" height="380" viewBox="0 0 659 380" fill="none" xmlns="http://www.w3.org/2000/svg">
<path opacity="0.25" d="M587.85 129.748C561.935 105.956 530.693 -37.5273 423.666 37.2015C368.371 75.813 275.133 4.05389 197.956 28.8383C127.079 51.6008 120.247 126.594 127.106 151.029C140.959 200.392 97.8518 207.74 57.8605 228.947C-4.86663 262.215 41.2592 379.13 100.521 379.687C159.783 380.248 518.794 378.575 518.794 378.575C518.794 378.575 604.884 378.81 640.682 327.671C679.207 272.638 654.786 191.202 587.85 129.748Z" fill="#EBF2F9"/>
<path d="M478.647 308.269H626.185V41.4682H478.647V308.269Z" fill="#AED3FF"/>
<path d="M621.556 41.4668H474.018V308.267H621.556V41.4668Z" fill="#D2E4FF"/>
<path d="M611.863 56.3745H484.069V149.306H611.863V56.3745Z" fill="#F3F9FF"/>
<path d="M609.659 236.512H541.072V286.13H609.659V236.512Z" fill="#F3F9FF"/>
<path d="M489.337 103.803C489.337 103.803 511.157 100.878 524.489 114.097C537.821 127.317 562.662 115.268 572.662 114.097C590.052 112.061 603.681 118.182 607.724 124.914V145.106H489.337V103.803Z" fill="#EE9849"/>
<path d="M507.163 71.3101H506.25V102.838H507.163V71.3101Z" fill="#A6C7F9"/>
<path d="M543.042 84.8379H542.129V116.366H543.042V84.8379Z" fill="#A6C7F9"/>
<path d="M580.069 77.7031H579.156V109.231H580.069V77.7031Z" fill="#A6C7F9"/>
<path d="M517.371 76.1457H510.361C509.941 76.1457 509.601 75.776 509.601 75.327C509.601 74.8751 509.944 74.5083 510.361 74.5083H517.371C517.791 74.5083 518.132 74.878 518.132 75.327C518.132 75.7789 517.791 76.1457 517.371 76.1457Z" fill="#A6C7F9"/>
<path d="M517.371 79.0989H510.361C509.941 79.0989 509.601 78.7291 509.601 78.2801C509.601 77.8282 509.944 77.4614 510.361 77.4614H517.371C517.791 77.4614 518.132 77.8312 518.132 78.2801C518.132 78.7321 517.791 79.0989 517.371 79.0989Z" fill="#A6C7F9"/>
<path d="M552.72 92.2185H545.711C545.291 92.2185 544.95 91.8488 544.95 91.3998C544.95 90.9479 545.293 90.5811 545.711 90.5811H552.72C553.14 90.5811 553.481 90.9508 553.481 91.3998C553.481 91.8488 553.14 92.2185 552.72 92.2185Z" fill="#A6C7F9"/>
<path d="M552.72 95.1087H545.711C545.291 95.1087 544.95 94.7389 544.95 94.2899C544.95 93.838 545.293 93.4712 545.711 93.4712H552.72C553.14 93.4712 553.481 93.8409 553.481 94.2899C553.481 94.7418 553.14 95.1087 552.72 95.1087Z" fill="#A6C7F9"/>
<path d="M590.353 80.3279H583.344C582.924 80.3279 582.583 79.9581 582.583 79.5092C582.583 79.0572 582.927 78.6904 583.344 78.6904H590.353C590.773 78.6904 591.114 79.0602 591.114 79.5092C591.117 79.9611 590.773 80.3279 590.353 80.3279Z" fill="#A6C7F9"/>
<path d="M590.353 83.2209H583.344C582.924 83.2209 582.583 82.8511 582.583 82.4022C582.583 81.9503 582.927 81.5835 583.344 81.5835H590.353C590.773 81.5835 591.114 81.9532 591.114 82.4022C591.117 82.8511 590.773 83.2209 590.353 83.2209Z" fill="#A6C7F9"/>
<path d="M599.245 186.655C606.214 186.655 611.863 180.575 611.863 173.075C611.863 165.574 606.214 159.494 599.245 159.494C592.277 159.494 586.627 165.574 586.627 173.075C586.627 180.575 592.277 186.655 599.245 186.655Z" fill="#F3F9FF"/>
<path d="M610.794 173.075C610.794 179.939 605.625 185.506 599.245 185.506C596.235 185.506 593.492 184.267 591.439 182.237L599.245 173.078V160.648C605.625 160.645 610.794 166.212 610.794 173.075Z" fill="#C65447"/>
<path d="M594.847 170.885H590.7C590.509 170.885 590.353 170.718 590.353 170.513C590.353 170.307 590.509 170.14 590.7 170.14H594.847C595.037 170.14 595.193 170.307 595.193 170.513C595.196 170.718 595.037 170.885 594.847 170.885Z" fill="#A6C7F9"/>
<path d="M567.917 186.655C574.886 186.655 580.535 180.575 580.535 173.075C580.535 165.574 574.886 159.494 567.917 159.494C560.949 159.494 555.299 165.574 555.299 173.075C555.299 180.575 560.949 186.655 567.917 186.655Z" fill="#F3F9FF"/>
<path d="M567.916 173.075L575.013 182.882C573.055 184.525 570.593 185.505 567.916 185.505C561.536 185.505 556.366 179.941 556.366 173.075C556.366 166.211 561.536 160.645 567.916 160.645C573.938 160.645 578.884 165.607 579.416 171.939L567.916 173.075Z" fill="#E57970"/>
<path d="M576.81 176.147H573.923C573.732 176.147 573.576 175.98 573.576 175.775C573.576 175.569 573.732 175.402 573.923 175.402H576.81C577.001 175.402 577.156 175.569 577.156 175.775C577.156 175.98 577.001 176.147 576.81 176.147Z" fill="#A6C7F9"/>
<path d="M586.624 210.479C586.624 202.979 592.273 196.898 599.242 196.898C606.211 196.898 611.86 202.979 611.86 210.479C611.86 217.98 606.211 224.06 599.242 224.06C592.273 224.06 586.624 217.98 586.624 210.479Z" fill="#F3F9FF"/>
<path d="M610.794 210.479C610.794 217.343 605.625 222.91 599.245 222.91C596.235 222.91 593.492 221.671 591.439 219.641L599.245 210.482V198.052C605.625 198.049 610.794 203.615 610.794 210.479Z" fill="#EE9849"/>
<path d="M594.847 208.29H590.7C590.509 208.29 590.354 208.122 590.354 207.917C590.354 207.712 590.509 207.544 590.7 207.544H594.847C595.038 207.544 595.193 207.712 595.193 207.917C595.196 208.12 595.038 208.29 594.847 208.29Z" fill="#A6C7F9"/>
<path d="M555.299 210.479C555.299 202.979 560.948 196.898 567.917 196.898C574.886 196.898 580.535 202.979 580.535 210.479C580.535 217.98 574.886 224.06 567.917 224.06C560.948 224.06 555.299 217.98 555.299 210.479Z" fill="#F3F9FF"/>
<path d="M579.416 209.344C578.884 203.011 573.938 198.049 567.916 198.049C561.536 198.049 556.366 203.613 556.366 210.479C556.366 217.343 561.536 222.909 567.916 222.909C570.59 222.909 573.055 221.932 575.013 220.286L567.916 210.479L579.416 209.344Z" fill="#C65447"/>
<path d="M576.81 213.552H573.923C573.732 213.552 573.576 213.384 573.576 213.179C573.576 212.973 573.732 212.806 573.923 212.806H576.81C577.001 212.806 577.156 212.973 577.156 213.179C577.156 213.384 577.001 213.552 576.81 213.552Z" fill="#A6C7F9"/>
<path d="M606.702 282.66H543.749V242.625H544.531V281.818H606.702V282.66Z" fill="#A6C7F9"/>
<path d="M563.428 268.184C555.721 261.581 547.525 268.184 547.525 268.184V279.473H605.14V250.295C589.482 250.721 571.133 274.786 563.428 268.184Z" fill="#A6C7F9"/>
<path d="M548.184 245.679H575.032C575.394 245.679 575.691 245.359 575.691 244.969C575.691 244.579 575.394 244.259 575.032 244.259H548.184C547.822 244.259 547.524 244.579 547.524 244.969C547.524 245.359 547.822 245.679 548.184 245.679Z" fill="#A6C7F9"/>
<path d="M548.185 249.148H575.032C575.395 249.148 575.692 248.828 575.692 248.438C575.692 248.047 575.395 247.728 575.032 247.728H548.185C547.822 247.728 547.525 248.047 547.525 248.438C547.525 248.831 547.822 249.148 548.185 249.148Z" fill="#A6C7F9"/>
<path d="M548.065 252.426H565.841C566.138 252.426 566.381 252.165 566.381 251.845V251.587C566.381 251.267 566.138 251.006 565.841 251.006H548.065C547.768 251.006 547.525 251.267 547.525 251.587V251.845C547.525 252.162 547.77 252.426 548.065 252.426Z" fill="#A6C7F9"/>
<path d="M449.606 -0.00244141H247.735V327.667H449.606V-0.00244141Z" fill="#D2E4FF"/>
<path d="M429.768 18.3262H267.24V213.306H429.768V18.3262Z" fill="#F3F9FF"/>
<path d="M328.304 283.204C332.196 266.341 322.65 249.276 306.983 245.087C291.316 240.898 275.46 251.171 271.568 268.034C267.676 284.896 277.221 301.962 292.888 306.151C308.556 310.34 324.412 300.066 328.304 283.204Z" fill="#F3F9FF"/>
<path d="M324.633 275.601C324.633 260.914 313.572 249.006 299.927 249.006C286.278 249.006 275.217 260.914 275.217 275.601C275.217 290.288 286.278 302.196 299.927 302.196C305.565 302.196 310.756 300.166 314.911 296.747L299.927 275.601L323.017 285.085C324.061 282.139 324.633 278.944 324.633 275.601Z" fill="#EE9849"/>
<path d="M427.899 283.204C431.792 266.341 422.246 249.276 406.579 245.087C390.912 240.898 375.056 251.171 371.164 268.034C367.272 284.896 376.817 301.962 392.484 306.151C408.151 310.34 424.007 300.066 427.899 283.204Z" fill="#F3F9FF"/>
<path d="M399.515 249.006C385.867 249.006 374.805 260.914 374.805 275.601C374.805 282.87 377.513 289.455 381.905 294.256L399.515 275.601L422.603 285.085C423.647 282.139 424.219 278.944 424.219 275.601C424.222 260.914 413.161 249.006 399.515 249.006Z" fill="#EE9849"/>
<path d="M395.905 262.099H385.387C384.972 262.099 384.634 262.463 384.634 262.906C384.634 263.352 384.972 263.716 385.387 263.716H395.905C396.32 263.716 396.658 263.352 396.658 262.906C396.655 262.463 396.317 262.099 395.905 262.099Z" fill="#DD7C2C"/>
<path d="M395.904 264.661H385.385C384.971 264.661 384.633 265.025 384.633 265.471C384.633 265.917 384.971 266.28 385.385 266.28H395.904C396.318 266.28 396.656 265.917 396.656 265.471C396.654 265.025 396.316 264.661 395.904 264.661Z" fill="#DD7C2C"/>
<path d="M389.729 267.219H385.385C384.971 267.219 384.633 267.583 384.633 268.029C384.633 268.472 384.971 268.836 385.385 268.836H389.729C390.143 268.836 390.481 268.472 390.481 268.029C390.481 267.583 390.143 267.219 389.729 267.219Z" fill="#DD7C2C"/>
<path d="M296.114 262.1H285.595C285.181 262.1 284.843 262.464 284.843 262.907C284.843 263.353 285.181 263.717 285.595 263.717H296.114C296.525 263.717 296.863 263.353 296.863 262.907C296.863 262.464 296.525 262.1 296.114 262.1Z" fill="#DD7C2C"/>
<path d="M296.113 264.662H285.595C285.18 264.662 284.842 265.026 284.842 265.472C284.842 265.918 285.18 266.282 285.595 266.282H296.113C296.525 266.282 296.863 265.918 296.863 265.472C296.863 265.026 296.525 264.662 296.113 264.662Z" fill="#DD7C2C"/>
<path d="M289.938 267.221H285.595C285.18 267.221 284.842 267.585 284.842 268.031C284.842 268.474 285.18 268.838 285.595 268.838H289.938C290.352 268.838 290.69 268.474 290.69 268.031C290.69 267.585 290.352 267.221 289.938 267.221Z" fill="#DD7C2C"/>
<path d="M298.865 88.0083H281.713V202.998H298.865V88.0083Z" fill="#A6C7F9"/>
<path d="M326.964 55.9556H309.812V202.998H326.964V55.9556Z" fill="#A6C7F9"/>
<path d="M357.622 115.818H340.47V203.001H357.622V115.818Z" fill="#A6C7F9"/>
<path d="M387.456 75.5864H370.304V202.997H387.456V75.5864Z" fill="#A6C7F9"/>
<path d="M417.443 132.881H400.291V203H417.443V132.881Z" fill="#A6C7F9"/>
<path d="M386.638 59.0088H372.114C371.288 59.0088 370.612 59.7365 370.612 60.6257C370.612 61.5148 371.288 62.2425 372.114 62.2425H386.638C387.464 62.2425 388.14 61.5148 388.14 60.6257C388.14 59.7365 387.464 59.0088 386.638 59.0088Z" fill="#A6C7F9"/>
<path d="M375.421 64.8955H372.114C371.288 64.8955 370.612 65.6233 370.612 66.5124C370.612 67.4015 371.288 68.1293 372.114 68.1293H375.421C376.247 68.1293 376.924 67.4015 376.924 66.5124C376.924 65.6233 376.247 64.8955 375.421 64.8955Z" fill="#A6C7F9"/>
<path d="M326.788 33.9658H312.264C311.438 33.9658 310.762 34.6936 310.762 35.5827C310.762 36.4719 311.438 37.1996 312.264 37.1996H326.788C327.614 37.1996 328.29 36.4719 328.29 35.5827C328.29 34.6936 327.614 33.9658 326.788 33.9658Z" fill="#A6C7F9"/>
<path d="M315.571 39.8496H312.264C311.438 39.8496 310.762 40.5774 310.762 41.4665C310.762 42.3557 311.438 43.0834 312.264 43.0834H315.571C316.397 43.0834 317.073 42.3557 317.073 41.4665C317.073 40.5774 316.397 39.8496 315.571 39.8496Z" fill="#A6C7F9"/>
<path d="M356.306 98.6523H341.782C340.956 98.6523 340.28 99.3801 340.28 100.269C340.28 101.158 340.956 101.886 341.782 101.886H356.306C357.132 101.886 357.808 101.158 357.808 100.269C357.808 99.3801 357.132 98.6523 356.306 98.6523Z" fill="#A6C7F9"/>
<path d="M345.089 104.538H341.782C340.956 104.538 340.28 105.265 340.28 106.155C340.28 107.044 340.956 107.771 341.782 107.771H345.089C345.916 107.771 346.592 107.044 346.592 106.155C346.592 105.265 345.916 104.538 345.089 104.538Z" fill="#A6C7F9"/>
<path d="M416.127 115.816H401.603C400.777 115.816 400.101 116.544 400.101 117.433C400.101 118.322 400.777 119.05 401.603 119.05H416.127C416.953 119.05 417.629 118.322 417.629 117.433C417.629 116.544 416.953 115.816 416.127 115.816Z" fill="#A6C7F9"/>
<path d="M404.91 121.7H401.603C400.777 121.7 400.101 122.428 400.101 123.317C400.101 124.206 400.777 124.934 401.603 124.934H404.91C405.736 124.934 406.412 124.206 406.412 123.317C406.412 122.428 405.736 121.7 404.91 121.7Z" fill="#A6C7F9"/>
<path d="M220.497 124.204H72.9586V213.602H220.497V124.204Z" fill="#AED3FF"/>
<path d="M225.292 124.204H77.7539V213.602H225.292V124.204Z" fill="#D2E4FF"/>
<path d="M136.969 187.182C147.387 175.97 147.387 157.791 136.969 146.579C126.552 135.367 109.662 135.367 99.2449 146.579C88.8276 157.791 88.8276 175.97 99.2449 187.182C109.662 198.394 126.552 198.394 136.969 187.182Z" fill="#F3F9FF"/>
<path d="M208.707 150.843H164.514C162.914 150.843 161.602 152.255 161.602 153.977C161.602 155.703 162.914 157.111 164.514 157.111H208.707C210.31 157.111 211.619 155.7 211.619 153.977C211.619 152.255 210.307 150.843 208.707 150.843Z" fill="#F3F9FF"/>
<path d="M208.707 163.749H164.514C162.914 163.749 161.602 165.16 161.602 166.883C161.602 168.606 162.914 170.017 164.514 170.017H208.707C210.31 170.017 211.619 168.606 211.619 166.883C211.619 165.158 210.307 163.749 208.707 163.749Z" fill="#F3F9FF"/>
<path d="M208.707 176.655H164.514C162.914 176.655 161.602 178.066 161.602 179.789C161.602 181.511 162.914 182.923 164.514 182.923H208.707C210.31 182.923 211.619 181.511 211.619 179.789C211.619 178.063 210.307 176.655 208.707 176.655Z" fill="#F3F9FF"/>
<path d="M93.6786 166.466H118.102V140.177C104.614 140.177 93.6786 151.947 93.6786 166.466Z" fill="#A8D29F"/>
<path d="M142.528 167.311H118.105H93.6786C93.6786 181.828 104.614 193.598 118.102 193.598C131.592 193.598 142.528 181.828 142.528 167.311Z" fill="#F1A34F"/>
<path d="M113.889 152.949H100.636C99.8806 152.949 99.2644 153.612 99.2644 154.425C99.2644 155.238 99.8806 155.901 100.636 155.901H113.892C114.647 155.901 115.263 155.238 115.263 154.425C115.26 153.612 114.644 152.949 113.889 152.949Z" fill="#82B378"/>
<path d="M103.654 158.32H100.636C99.8806 158.32 99.2644 158.983 99.2644 159.796C99.2644 160.609 99.8806 161.272 100.636 161.272H103.654C104.409 161.272 105.025 160.609 105.025 159.796C105.025 158.986 104.406 158.32 103.654 158.32Z" fill="#82B378"/>
<path d="M133.569 173.737H120.313C119.558 173.737 118.942 174.4 118.942 175.213C118.942 176.026 119.558 176.689 120.313 176.689H133.569C134.324 176.689 134.94 176.026 134.94 175.213C134.94 174.4 134.324 173.737 133.569 173.737Z" fill="#DD8936"/>
<path d="M123.331 179.106H120.312C119.557 179.106 118.941 179.77 118.941 180.582C118.941 181.395 119.557 182.059 120.312 182.059H123.331C124.086 182.059 124.702 181.395 124.702 180.582C124.702 179.773 124.086 179.106 123.331 179.106Z" fill="#DD8936"/>
<path d="M62.5686 229.61V321.036H210.107V229.61H62.5686Z" fill="#AED3FF"/>
<path d="M67.3652 229.609V321.035H214.904V229.609H67.3652Z" fill="#D2E4FF"/>
<path d="M134.249 275.397C135.73 259.621 125.048 245.541 110.391 243.947C95.7336 242.353 82.6512 253.85 81.1706 269.626C79.69 285.401 90.3718 299.482 105.029 301.075C119.686 302.669 132.769 291.172 134.249 275.397Z" fill="#F3F9FF"/>
<path d="M154.127 262.728H198.32C199.921 262.728 201.232 261.316 201.232 259.593C201.232 257.871 199.921 256.459 198.32 256.459H154.127C152.524 256.459 151.216 257.871 151.216 259.593C151.216 261.316 152.524 262.728 154.127 262.728Z" fill="#F3F9FF"/>
<path d="M198.32 269.365H154.127C152.524 269.365 151.216 270.777 151.216 272.499C151.216 274.222 152.527 275.633 154.127 275.633H198.32C199.921 275.633 201.232 274.222 201.232 272.499C201.232 270.774 199.921 269.365 198.32 269.365Z" fill="#F3F9FF"/>
<path d="M198.32 282.271H154.127C152.524 282.271 151.216 283.683 151.216 285.405C151.216 287.128 152.527 288.539 154.127 288.539H198.32C199.921 288.539 201.232 287.128 201.232 285.405C201.232 283.68 199.921 282.271 198.32 282.271Z" fill="#F3F9FF"/>
<path d="M107.716 272.966L83.2923 272.631C83.2895 272.743 83.2896 272.854 83.2896 272.966C83.2896 287.483 94.2253 299.256 107.716 299.256C112.539 299.256 117.032 297.75 120.822 295.153L107.716 272.966Z" fill="#F1A34F"/>
<path d="M108.618 281.244H95.3624C94.6071 281.244 93.991 281.907 93.991 282.72C93.991 283.533 94.6071 284.196 95.3624 284.196H108.618C109.374 284.196 109.99 283.533 109.99 282.72C109.99 281.907 109.371 281.244 108.618 281.244Z" fill="#DD8936"/>
<path d="M98.3805 286.615H95.3624C94.6071 286.615 93.991 287.278 93.991 288.091C93.991 288.904 94.6071 289.567 95.3624 289.567H98.3805C99.1358 289.567 99.752 288.904 99.752 288.091C99.752 287.278 99.1358 286.615 98.3805 286.615Z" fill="#DD8936"/>
<path d="M210.11 26.7065H62.5686V109.555H210.11V26.7065Z" fill="#AED3FF"/>
<path d="M214.904 26.7061H67.3652V109.554H214.904V26.7061Z" fill="#D2E4FF"/>
<path d="M126.577 89.6485C136.994 78.4364 136.994 60.258 126.577 49.0459C116.159 37.8338 99.2696 37.8338 88.8523 49.0459C78.435 60.258 78.435 78.4364 88.8523 89.6485C99.2696 100.861 116.159 100.861 126.577 89.6485Z" fill="#F3F9FF"/>
<path d="M107.713 43.0601C94.2253 43.0601 83.2896 54.8272 83.2896 69.3469C83.2896 79.2917 88.4234 87.9483 95.992 92.4116C99.9044 84.6119 107.713 69.3469 107.713 69.3469L119.278 92.5026C126.934 88.0657 132.136 79.3592 132.136 69.3469C132.136 54.8301 121.201 43.0601 107.713 43.0601Z" fill="#A8D29F"/>
<path d="M198.32 53.3081H154.127C152.527 53.3081 151.216 54.7196 151.216 56.4421C151.216 58.1646 152.527 59.5761 154.127 59.5761H198.32C199.921 59.5761 201.232 58.1646 201.232 56.4421C201.232 54.7196 199.921 53.3081 198.32 53.3081Z" fill="#F3F9FF"/>
<path d="M198.32 66.2134H154.127C152.527 66.2134 151.216 67.6249 151.216 69.3474C151.216 71.0699 152.527 72.4814 154.127 72.4814H198.32C199.921 72.4814 201.232 71.0699 201.232 69.3474C201.232 67.6219 199.921 66.2134 198.32 66.2134Z" fill="#F3F9FF"/>
<path d="M198.32 79.1196H154.127C152.527 79.1196 151.216 80.5311 151.216 82.2536C151.216 83.9761 152.527 85.3876 154.127 85.3876H198.32C199.921 85.3876 201.232 83.9761 201.232 82.2536C201.232 80.5282 199.921 79.1196 198.32 79.1196Z" fill="#F3F9FF"/>
<path d="M108.618 56.7905H95.3624C94.6071 56.7905 93.991 57.4537 93.991 58.2666C93.991 59.0794 94.6071 59.7426 95.3624 59.7426H108.618C109.374 59.7426 109.99 59.0794 109.99 58.2666C109.99 57.4567 109.371 56.7905 108.618 56.7905Z" fill="#82B378"/>
<path d="M98.3805 62.1631H95.3624C94.6071 62.1631 93.991 62.8263 93.991 63.6391C93.991 64.4519 94.6071 65.1151 95.3624 65.1151H98.3805C99.1358 65.1151 99.752 64.4519 99.752 63.6391C99.752 62.8263 99.1358 62.1631 98.3805 62.1631Z" fill="#82B378"/>
<path d="M249.121 169.782C249.121 169.782 266.33 188.903 267.156 196.113C267.982 203.323 258.968 214.603 258.968 214.603L249.121 169.782Z" fill="#E58638"/>
<path d="M241.763 368.149C241.763 368.149 241.177 378.314 239.35 378.461C239.108 378.481 230.083 378.481 230.083 378.481L218.564 378.408C218.564 378.408 218.64 375.421 222.007 374.79C225.374 374.159 231.01 371.612 233.052 366.82C235.192 361.781 241.763 368.149 241.763 368.149Z" fill="#163560"/>
<path d="M267.421 368.149C267.421 368.149 266.835 378.314 265.008 378.461C264.765 378.481 255.741 378.481 255.741 378.481L244.186 378.437C244.186 378.437 244.295 375.421 247.665 374.79C251.032 374.159 256.671 371.612 258.71 366.82C260.853 361.781 267.421 368.149 267.421 368.149Z" fill="#163560"/>
<path d="M229.003 259.139C229.003 259.139 232.015 279.88 243.256 316.699C254.497 353.517 256.03 369.46 256.03 369.46C256.03 369.46 259.07 369.936 262.281 369.936C264.313 369.936 268.089 369.096 268.089 369.096C268.089 369.096 268.192 328.856 263.012 310.343C257.832 291.829 261.894 243.596 261.894 243.596L229.003 259.139Z" fill="#163560"/>
<path d="M223.137 244.731C223.137 244.731 222.709 275.986 227.734 314.362C232.759 352.739 231.055 369.028 231.055 369.028C231.055 369.028 235.191 369.826 236.644 369.879C238.201 369.935 243.089 369.46 243.089 369.46C243.089 369.46 250.281 331.068 248.217 311.859C246.154 292.65 258.065 245.946 258.065 245.946L223.137 244.731Z" fill="#1C468A"/>
<path d="M246.43 171.59L240.754 176.114L232.55 174.257C232.664 173.453 233.204 170.116 233.698 167.094C233.728 166.915 233.758 166.739 233.785 166.563C234.207 163.992 234.573 161.783 234.573 161.783L242.234 157.674L245.091 156.143C245.083 156.195 244.87 158.998 244.84 159.406C244.306 166.657 246.43 171.59 246.43 171.59Z" fill="#FFB27D"/>
<path d="M233.124 169.307C233.304 169.225 244.284 165.739 245.475 166.161C246.666 166.584 247.373 169.069 247.373 169.069L229.416 173.439C229.416 173.439 230.831 170.346 233.124 169.307Z" fill="#E58638"/>
<path d="M262.687 248.59C260.825 257.727 229.856 258.81 221.873 250.517C220.965 249.573 220.921 245.174 221.262 239.243C221.933 227.658 224.084 210.227 224.166 201.321C224.206 197.022 224.754 192.624 225.488 188.63C227.045 180.117 229.417 173.438 229.417 173.438C229.417 173.438 244.543 168.174 247.376 169.069C261.011 173.382 264.55 239.455 262.687 248.59Z" fill="#EE9849"/>
<path d="M221.262 239.243C221.932 227.657 224.083 210.227 224.165 201.321C224.206 197.022 224.754 192.623 225.488 188.629L234.588 186.901C234.588 186.901 243.485 226.014 221.262 239.243Z" fill="#E58638"/>
<path d="M226.191 223.091C226.191 223.091 226.812 224.687 225.509 225.758C224.206 226.83 223.36 228.567 223.66 229.834C223.958 231.102 226.818 233.171 227.807 232.839C228.797 232.505 230.815 230.835 230.596 230.166C230.378 229.497 231.951 224.294 229.539 222.29C227.12 220.289 226.191 223.091 226.191 223.091Z" fill="#FFB27D"/>
<path d="M236.367 171.095C236.367 171.095 227.493 172.882 220.42 184.097C213.348 195.313 208.697 203.652 210 207.696C211.303 211.74 223.177 225.758 225.224 225.758C227.272 225.758 230.574 224.155 230.762 220.549C230.762 220.549 222.402 207.062 224.049 205.043C224.753 204.181 234.903 195.313 236.351 199.318C238.747 205.947 236.367 171.095 236.367 171.095Z" fill="#EE9849"/>
<path d="M244.265 159.531C242.582 162.996 236.312 165.992 233.697 167.093C233.727 166.914 233.757 166.738 233.784 166.562C234.207 163.991 234.572 161.781 234.572 161.781L242.233 157.673C243.929 157.644 244.96 158.105 244.265 159.531Z" fill="#FCA56B"/>
<path d="M232.108 161.967C232.108 161.967 243.45 165.776 245.544 158.138C247.638 150.5 250.512 145.848 243.36 143.093C236.209 140.338 233.995 142.805 232.719 145.171C231.446 147.536 229.213 160.779 232.108 161.967Z" fill="#FFB27D"/>
<path d="M233.162 144.434C233.162 144.434 233.885 153.323 235.594 152.936C237.301 152.551 238.852 152.264 238.602 154.943C238.351 157.622 235.984 160.715 241.246 161.19C246.508 161.666 254.077 147.055 252.629 144.288C248.458 136.309 227.132 134.698 233.162 144.434Z" fill="#163560"/>
<path d="M28.9774 350.978L32.4291 366.63L37.6011 366.598L37.7919 350.978H28.9774Z" fill="#FFB27D"/>
<path d="M72.4813 351.645L82.3047 366.632L86.1326 361.338L80.2217 349.585L72.4813 351.645Z" fill="#FFB27D"/>
<path d="M46.9383 145.307C45.1525 144.215 43.0122 144.095 41.5181 144.192C41.9026 143.763 42.6605 143.608 42.6605 143.608C41.7335 143.458 39.6614 144.45 39.6614 144.45C26.7518 139.097 24.7233 159.553 24.9959 164.307C25.2659 169.061 20.6582 170.61 13.943 174.355C1.12602 181.497 0 191.064 0 191.064C0.100878 191.128 0.204483 191.199 0.316266 191.281C0.951525 190.122 2.26021 187.944 3.36442 187.616C3.32352 187.721 2.06118 190.612 1.58951 192.27C5.37107 195.365 12.4407 202.223 17.3701 207.086C17.3483 206.135 17.3837 204.785 17.7055 204.075L18.3135 208.022C20.9499 210.63 22.7684 212.467 22.7684 212.467C22.4413 208.626 38.9062 188.358 47.4972 182.29C49.5884 178.977 50.3327 173.122 50.3872 172.662C50.0273 177.304 49.2885 179.907 48.6287 181.371C55.9055 174.167 51.6686 148.2 46.9383 145.307Z" fill="#163560"/>
<path d="M46.991 182.593C47.0346 182.613 42.8441 184.955 39.6923 184.028C36.7287 183.159 34.7902 179.018 34.8311 179.01C36.088 178.74 36.4479 176.885 36.4233 168.903L36.9904 169.024L46.5357 171.057C46.5357 171.057 46.3176 174.291 46.3121 177.334C46.3039 179.893 46.4457 182.32 46.991 182.593Z" fill="#FFB27D"/>
<path d="M36.1954 148.655C36.1954 148.655 40.904 143.261 46.8149 148.379C46.8149 148.379 43.3741 147.739 36.1954 148.655Z" fill="#E37970"/>
<path d="M46.5323 171.057C46.5323 171.057 46.3142 174.291 46.3088 177.334C40.9677 177.172 38.1458 171.929 36.9871 169.021L46.5323 171.057Z" fill="#D68D5D"/>
<path d="M36.001 167.904C36.001 167.904 33.2009 163.144 32.5302 159.074C32.0504 156.169 33.4245 145.397 43.4823 146.949C43.4823 146.949 46.4024 147.26 49.1479 149.255C51.3318 150.843 54.4835 154.27 50.9582 163.667L50.0422 166.842L36.001 167.904Z" fill="#163560"/>
<path d="M84.573 357.232L79.5127 357.399L74.0353 357.581C74.0353 357.581 61.3874 342.424 54.2905 318.124C54.1242 317.561 53.9497 316.989 53.767 316.411C49.8846 304.224 41.8334 288.927 37.5911 275.082C36.9149 272.875 36.3097 270.8 35.7644 268.834C35.5899 268.206 35.4209 267.587 35.26 266.98C32.1328 255.289 31.2276 247.612 30.3933 239.411L61.0248 239.675C61.0275 239.672 65.9733 295.676 84.573 357.232Z" fill="#80BDCC"/>
<path d="M56.7414 220.728C56.6651 236.416 58.879 243.147 58.879 243.147C58.879 243.147 45.7621 250.319 30.175 245.04C29.9923 244.978 17.2681 241.853 17.2681 241.853C17.5298 241.219 19.85 230.646 20.1036 230.062C23.3944 222.456 25.8945 219.12 26.2844 216.781C27.0096 212.415 27.0233 207.899 26.6634 203.638C25.7118 192.358 22.8845 182.997 22.8845 182.997C27.1323 181.958 31.2192 180.177 35.6415 178.393C36.6585 179.754 39.6576 181.134 42.354 181.069C45.4594 180.996 46.43 179.581 46.3155 177.991C49.6254 179.971 52.2537 181.858 52.2537 181.858C55.0674 187.117 60.7684 192.223 61.1828 200.287C61.2837 202.267 56.7442 220.291 56.7414 220.728Z" fill="#E7F1FD"/>
<path d="M30.3996 222.476C29.0609 224.515 26.4926 236.914 20.1073 238.472C23.3981 229.636 25.8983 225.763 26.2881 223.045C27.0134 217.975 27.027 212.728 26.6671 207.777C28.8047 203.743 30.3996 200.978 30.3996 200.978C30.5687 200.327 33.7968 189.578 34.8328 199.185C35.8661 208.796 31.8964 220.196 30.3996 222.476Z" fill="#5F9AA8"/>
<path d="M48.3145 173.942C48.3145 173.942 35.6775 174.165 35.6693 165.693C35.6611 157.221 34.0226 151.546 42.0901 151.044C50.1576 150.542 51.728 153.773 52.3715 156.599C53.0149 159.428 51.6026 173.666 48.3145 173.942Z" fill="#FFB27D"/>
<path d="M51.9971 151.89C50.0477 149.346 48.5727 149.9 47.7439 150.663C45.012 146.27 36.3828 152.623 36.3828 152.623C35.5376 158.701 31.4644 162.184 31.4644 162.184C31.4644 162.184 33.7682 163.716 39.0766 162.245C43.2562 161.089 46.288 154.689 47.3894 152.013C48.1419 152.732 49.726 154.393 50.2004 156.021C50.8302 158.178 51.1138 162.621 52.3161 162.468C52.3188 162.468 54.9253 155.713 51.9971 151.89Z" fill="#163560"/>
<path d="M32.2558 365.754C32.2558 365.754 32.6729 368.853 31.596 372.172C31.596 372.172 30.7481 376.324 34.5487 376.4C38.3466 376.477 39.2791 376.092 38.8483 373.545C38.4175 371.001 37.5996 366.597 37.5996 366.597L32.2558 365.754Z" fill="#FFB27D"/>
<path d="M39.2059 378.437C39.2059 378.437 39.2031 378.44 39.195 378.446H31.3347C31.3265 378.44 31.321 378.437 31.321 378.437C30.8903 376.266 31.5937 372.175 31.5937 372.175C35.896 376.6 38.587 372.063 38.587 372.063C39.2877 373.959 39.2059 378.437 39.2059 378.437Z" fill="#C45446"/>
<path d="M95.2868 374.156C95.2868 374.156 88.2826 365.596 86.1341 361.338L80.9266 364.211L92.5658 375.978L95.2895 375.594L95.2868 374.156Z" fill="#FFB27D"/>
<path d="M99.5816 378.423H89.8646C89.0085 377.592 88.1933 375.92 87.1927 373.727C86.6201 372.472 85.3387 371.779 84.0218 371.4V378.423H82.0124L80.1503 370.954C78.9098 368.451 79.8422 366.159 80.7147 364.182C81.7289 364.179 84.6707 364.968 89.8455 371.365C91.5468 373.466 93.4226 374.215 95.2875 374.153C95.312 374.171 95.3393 374.185 95.3638 374.197C98.3084 375.655 99.2708 377.443 99.5816 378.423Z" fill="#C45446"/>
<path d="M99.1081 188C99.1081 188 90.8143 192.991 87.8507 194.432C86.7983 194.943 84.8871 195.899 82.9377 196.879C81.7598 197.472 80.5684 198.074 79.5378 198.596C77.7956 199.476 75.7235 198.995 74.4721 197.419C69.9816 191.773 58.3561 179.54 46.3516 178.008L46.3107 177.987C46.3107 177.987 46.3134 177.993 46.3162 178.002C46.3107 178.002 46.3053 178.002 46.2998 177.999L46.3652 178.137C47.0387 179.945 53.6203 197.639 53.8248 201.372C54.0402 205.307 54.6836 265.704 54.6836 265.704C54.6836 265.704 54.2528 268.48 59.1986 267.324C64.1443 266.168 65.4339 265.009 65.4339 265.009C65.4339 265.009 60.7036 227.75 61.9932 214.791C62.2467 212.247 62.0177 209.389 61.4888 206.44C68.7984 211.205 77.4193 213.327 77.4193 213.327C77.4193 213.327 80.6338 211.816 85.6286 208.485C87.7253 207.085 90.1572 204.852 92.5511 202.49C95.4438 199.635 100.42 192.742 100.42 192.742L99.1081 188Z" fill="#E37970"/>
<path d="M79.515 357.397L74.0375 357.579C74.0375 357.579 61.3896 342.422 54.2927 318.122C54.1264 317.559 53.9519 316.987 53.7692 316.408C49.8868 304.222 41.8356 288.924 37.5933 275.08C36.9172 272.873 36.3119 270.798 35.7666 268.832C35.5921 268.204 35.4231 267.585 35.2622 266.978L39.7717 263.295C39.7717 263.295 53.3139 286.9 57.5072 309.113C61.1524 328.407 75.7388 351.625 79.515 357.397Z" fill="#5F9AA8"/>
<path d="M40.2425 311.179C40.3189 321.98 39.8117 346.818 38.5058 357.097H33.6555C30.9754 357.097 29.6367 357.056 29.6367 357.056C26.3568 339.179 24.0257 324.387 22.3271 311.639C20.9339 301.181 19.6961 292.213 18.7419 284.493C17.7822 276.725 17.1169 270.22 16.877 264.723C16.8415 263.858 16.8116 263.016 16.7979 262.2C16.7816 261.378 16.7788 260.58 16.7843 259.805L43.2525 257.029C42.9199 275.957 40.1989 304.902 40.2425 311.179Z" fill="#80BDCC"/>
<path d="M33.6584 357.101C30.9783 357.101 29.6396 357.06 29.6396 357.06C26.3597 339.183 24.0286 324.39 22.33 311.643C20.9368 301.185 19.699 292.217 18.7448 284.496C17.7851 276.729 17.1198 270.223 16.8799 264.727L26.5915 270.875C26.5915 270.875 20.3915 273.228 22.7581 291.046C25.1246 308.867 30.3648 354.577 33.6584 357.101Z" fill="#5F9AA8"/>
<path d="M34.9069 264.552C34.9069 264.552 33.042 271.803 26.5912 270.876C20.1405 269.951 10.9688 265.785 10.9688 265.785C10.9688 265.785 13.7252 256.409 17.1523 244.093C21.302 229.183 26.4386 209.962 28.8596 197.837C29.5385 194.439 30.0047 191.602 30.1765 189.571L35.6403 178.391C35.6403 178.391 43.5088 197.67 43.9396 202.529C44.3676 207.392 34.9069 264.552 34.9069 264.552Z" fill="#E37970"/>
<path d="M57.9432 207.956C54.8378 208.397 53.649 210.172 53.2646 212.567C53.0574 213.861 52.4385 215.137 51.9123 216.038C48.8205 216.217 41.4564 216.648 35.2674 217.068L34.7576 225.804C39.8396 225.123 46.0859 223.735 53.2755 221.085C53.829 220.983 54.5188 220.616 55.383 219.853C59.838 215.926 62.3654 209.35 62.3736 208.408C62.3818 207.469 61.0486 207.516 57.9432 207.956Z" fill="#FFB27D"/>
<path d="M34.6202 212.715C34.3312 220.582 32.6109 235.856 17.2747 244.031C17.2338 244.052 17.1929 244.075 17.152 244.093C21.3016 229.183 26.4382 209.962 28.8593 197.837C31.6757 202.371 34.7784 208.383 34.6202 212.715Z" fill="#C45446"/>
<path d="M35.6379 178.393C35.6379 178.393 22.5183 179.394 19.3666 186.953C16.2121 194.512 15.2088 219.66 19.2221 227.064C19.2221 227.064 24.7486 228.757 34.5201 226.791C34.6401 226.767 34.76 226.744 34.88 226.718C34.88 226.718 37.999 218.501 35.2017 216.881C35.2017 216.881 26.9597 217.345 27.8185 214.413C28.6828 211.485 35.6379 178.393 35.6379 178.393Z" fill="#E37970"/>
<path d="M108.002 182.066C100.943 181.089 99.1631 188 99.1631 188L100.48 192.745C102.656 193.068 104.559 192.457 106.315 189.758C108.068 187.055 108.553 188.094 109.665 186.084C111.179 183.357 108.812 182.342 108.002 182.066Z" fill="#FFB27D"/>
<path d="M87.85 194.433C86.7976 194.943 84.8864 195.9 82.937 196.88C83.9812 198.876 85.2872 202.5 85.6334 208.489C87.7301 207.089 90.4456 204.756 92.7631 202.309C96.4819 198.38 100.427 192.746 100.427 192.746L99.1102 188C99.1075 188 90.8137 192.992 87.85 194.433Z" fill="#FFB27D"/>
<path d="M462.267 249.473C462.267 249.473 457.248 250.861 454.058 249.825C450.868 248.789 445.377 250.488 444.494 251.741C443.61 252.995 443.935 253.49 445.513 253.922C447.092 254.353 452.681 256.921 456.356 255.436C460.032 253.951 464.822 253.895 464.822 253.895L462.267 249.473Z" fill="#E49963"/>
<path d="M505.643 202.548C505.643 202.548 500.005 245.679 490.669 249.54C486.062 251.448 465.703 255.767 459.68 256.202C459.68 256.202 458.205 254.913 458.565 249.669C458.565 249.669 479.894 241.242 482.926 236.658C487.436 229.836 480.126 208.79 485.786 202.384C491.444 195.978 500.975 193.225 505.643 202.548Z" fill="#4A75CB"/>
<path d="M504.921 368.73V359.328H518.676C519.047 359.328 519.349 359.002 519.349 358.6V357.095C519.349 356.695 519.047 356.367 518.676 356.367H504.921V302.836C504.921 301.334 503.779 300.104 502.383 300.104H499.662C498.266 300.104 497.123 301.334 497.123 302.836V356.367H483.369C482.998 356.367 482.692 356.693 482.692 357.095V358.6C482.692 358.999 482.995 359.328 483.369 359.328H497.123V368.73C487.172 369.54 479.197 373.395 476.961 378.378H525.083C522.847 373.395 514.872 369.54 504.921 368.73Z" fill="#2B478B"/>
<path d="M503.741 293.413C502.096 296.415 500.193 299.229 498.233 301.893C492.172 310.127 485.577 316.915 484.429 323.332C484.2 324.612 483.838 325.988 483.363 327.441C482.883 328.911 482.289 330.457 481.605 332.053C479.034 338.066 475.187 344.801 471.348 350.925C464.712 361.51 458.471 370.342 458.471 370.342L447.025 369.817C447.483 368.582 452.475 353.968 459.155 336.106C461.868 328.855 464.75 321.143 467.533 313.704C467.904 312.71 468.275 311.721 468.64 310.741C469.491 308.463 470.328 306.224 471.146 304.041C477.417 287.271 482.412 273.916 482.412 273.916C482.412 273.916 507.473 263.698 510.077 270.319C512.22 275.78 510.472 281.129 503.741 293.413Z" fill="#163560"/>
<path d="M458.112 368.105C458.112 368.105 457.526 378.27 455.699 378.416C455.457 378.437 446.432 378.437 446.432 378.437L434.913 378.363C434.913 378.363 434.989 375.376 438.357 374.745C441.724 374.114 447.362 371.567 449.401 366.775C451.544 361.734 458.112 368.105 458.112 368.105Z" fill="#163560"/>
<path d="M484.618 339.064C484.618 339.064 492.579 344.569 491.807 346.359C491.704 346.597 487.306 355.077 487.306 355.077L481.632 365.867C481.632 365.867 479.247 364.341 480.375 360.867C481.504 357.396 482.186 350.855 479.296 346.603C476.248 342.13 484.618 339.064 484.618 339.064Z" fill="#163560"/>
<path d="M473.845 269.069C473.845 269.069 442.387 290.159 438.876 304.333C435.364 318.506 480.721 348.743 480.721 348.743C480.721 348.743 485.697 344.018 486.574 340.553C486.574 340.553 466.072 314.116 461.625 308.189C458.893 304.55 502.012 295.588 507.276 286.77C512.544 277.952 510.657 270.531 510.657 270.531L473.845 269.069Z" fill="#1C468A"/>
<path d="M533.214 296.152H468.832C467.545 296.152 466.49 297.285 466.49 298.673V312.532C466.49 313.917 467.542 315.053 468.832 315.053H533.214C534.501 315.053 535.556 313.92 535.556 312.532V298.673C535.556 297.285 534.503 296.152 533.214 296.152Z" fill="#EE9849"/>
<path d="M488.391 195.156C485.302 197.216 483.598 199.831 483.598 199.831C491.134 201.929 503.626 194.414 503.626 194.414C503.626 194.414 498.776 190.904 496.979 183.198C496.889 182.808 496.805 182.412 496.731 182.001C496.497 180.704 496.35 179.298 496.322 177.781L492.86 181.121L487.102 186.673C487.102 186.673 487.232 188.976 487.952 192.938C488.083 193.624 488.228 194.367 488.391 195.156Z" fill="#E49963"/>
<path d="M511.574 233.422C510.494 249.048 512.31 272.805 511.086 276.922C510.028 280.473 497.59 278.372 492.783 277.186C491.003 276.746 488.849 276.121 486.624 275.378C480.416 273.31 473.652 270.355 472.927 268.163C472.899 268.077 472.875 267.992 472.858 267.91C472.79 267.593 472.807 267.294 472.872 266.992C473.115 265.874 474.047 264.665 474.156 261.898C474.279 258.808 474.26 255.169 474.369 251.254C474.374 250.814 474.38 250.333 474.426 249.896L474.429 249.734C474.432 249.649 474.432 249.567 474.434 249.485C474.538 245.121 474.75 240.532 474.996 235.98C475.151 233.122 475.334 230.294 475.541 227.579C476.084 220.58 476.812 214.354 477.777 210.418C479.355 204.004 482.834 199.819 486.003 196.753L488.293 194.637C490.85 195.239 493.871 194.839 496.606 193.446C499.564 191.934 500.586 190.849 501.101 191.259C507.934 196.932 512.85 214.318 511.574 233.422Z" fill="#739AF0"/>
<path d="M486.66 275.412C480.452 273.343 473.688 270.388 472.963 268.196C472.935 268.111 472.911 268.026 472.895 267.944C472.897 267.638 472.903 267.33 472.908 267.025C473.151 265.907 474.083 264.698 474.192 261.931C474.315 258.841 474.296 255.202 474.405 251.288C474.41 250.847 474.416 250.366 474.462 249.929L474.465 249.768C474.468 249.682 474.468 249.6 474.47 249.518L497.92 238.071C497.917 238.068 499.27 258.41 486.66 275.412Z" fill="#4A75CB"/>
<path d="M487.105 186.666C487.105 186.666 487.236 188.97 487.956 192.931C493.578 190.977 496.127 185.513 496.978 183.195C497.22 182.54 497.324 182.135 497.324 182.135C497.324 182.135 497.106 182.086 496.73 182C495.939 181.819 494.45 181.481 492.861 181.117L487.105 186.666Z" fill="#D68D5D"/>
<path d="M484.833 186.608C484.833 186.608 497.183 188.108 497.93 179.815C498.68 171.522 500.777 166.132 492.925 164.823C485.073 163.514 483.251 166.519 482.376 169.222C481.501 171.924 481.637 186.004 484.833 186.608Z" fill="#E49963"/>
<path d="M497.879 180.387C497.879 180.387 497.097 169.38 485.856 168.241C478.156 167.461 482.448 160.327 483.268 159.188C483.268 159.188 489.168 160.06 495.215 161.134C507.907 163.391 499.125 178.673 497.879 180.387Z" fill="#2B478B"/>
<path d="M428.918 229.815L427.836 230.193L437.034 260.662L438.115 260.284L428.918 229.815Z" fill="#4A75CB"/>
<path d="M468.224 257.922L436.997 258.641L437.037 260.651L468.264 259.931L468.224 257.922Z" fill="#4A75CB"/>
<path d="M464.849 256.104C464.849 256.104 460.002 258.079 456.727 257.428C453.45 256.779 448.166 259.118 447.416 260.468C446.667 261.818 447.04 262.273 448.651 262.516C450.265 262.76 456.084 264.647 459.582 262.733C463.08 260.82 467.837 260.198 467.837 260.198L464.849 256.104Z" fill="#E49963"/>
<path d="M503.156 204.318C503.156 204.318 501.97 247.853 493.087 252.801C488.703 255.242 468.912 261.953 462.971 263.098C462.971 263.098 461.374 261.991 461.194 256.739C461.194 256.739 481.53 245.831 484.071 240.916C487.855 233.601 478.433 213.549 483.403 206.51C488.368 199.473 497.559 195.605 503.156 204.318Z" fill="#739AF0"/>
<path d="M639.816 379.765H6.65332C6.31252 379.765 6.03442 379.466 6.03442 379.099C6.03442 378.732 6.31252 378.433 6.65332 378.433H639.816C640.157 378.433 640.435 378.732 640.435 379.099C640.432 379.466 640.154 379.765 639.816 379.765Z" fill="#202F4E"/>
</svg>
